<svg width="300" height="300" viewBox="0 0 300 300" fill="none" xmlns="http://www.w3.org/2000/svg">
<g id="default 1">
<g id="837bf107 de24 4b31 8197 789d8b58bc41" filter="url(#filter0_d)">
<g id="Vector">
<mask id="path-1-outside-1" maskUnits="userSpaceOnUse" x="18" y="157.181" width="263" height="57" fill="black">
<rect fill="white" x="18" y="157.181" width="263" height="57"/>
<path d="M37.1124 202.06C33.8252 202.06 30.6348 201.645 27.541 200.817C24.4473 200.015 21.9336 198.938 20 197.585L23.7705 189.132C25.5936 190.32 27.7068 191.287 30.11 192.032C32.5131 192.751 34.8749 193.11 37.1952 193.11C41.5873 193.11 43.7833 192.005 43.7833 189.795C43.7833 188.635 43.1618 187.779 41.9187 187.226C40.6481 186.674 38.6316 186.08 35.8693 185.444C32.8032 184.809 30.2481 184.105 28.204 183.331C26.1599 182.585 24.392 181.384 22.9004 179.726C21.4364 178.069 20.7044 175.818 20.7044 172.973C20.7044 170.514 21.3811 168.291 22.7347 166.302C24.0882 164.313 26.1185 162.738 28.8255 161.578C31.5049 160.418 34.792 159.838 38.6869 159.838C41.3663 159.838 44.0043 160.128 46.6008 160.708C49.1697 161.316 51.4486 162.2 53.4374 163.36L49.8741 171.895C46.0069 169.796 42.264 168.746 38.6454 168.746C36.3527 168.746 34.6815 169.092 33.6319 169.782C32.6098 170.445 32.0988 171.315 32.0988 172.393C32.0988 173.498 32.7065 174.312 33.9219 174.837C35.1649 175.39 37.1676 175.956 39.9299 176.536C43.0236 177.199 45.5788 177.903 47.5952 178.649C49.6393 179.395 51.3934 180.597 52.8574 182.254C54.349 183.884 55.0948 186.107 55.0948 188.925C55.0948 191.383 54.4181 193.593 53.0645 195.554C51.711 197.516 49.6807 199.09 46.9737 200.278C44.2667 201.466 40.9795 202.06 37.1124 202.06ZM78.8367 192.24L81.5713 199.946C80.6321 200.526 79.4996 200.982 78.1737 201.314C76.8478 201.618 75.4252 201.769 73.906 201.769C69.8178 201.769 66.6688 200.761 64.459 198.745C62.2491 196.728 61.1442 193.731 61.1442 189.754V179.188H56.545V170.942H61.1442V162.78H72.1657V170.942H79.3753V179.188H72.1657V189.629C72.1657 190.762 72.4696 191.646 73.0773 192.281C73.6574 192.916 74.4584 193.234 75.4805 193.234C76.7511 193.234 77.8699 192.903 78.8367 192.24ZM101.584 201.769C98.2141 201.769 95.1756 201.065 92.4685 199.656C89.7615 198.275 87.6483 196.342 86.1291 193.856C84.5822 191.397 83.8088 188.593 83.8088 185.444C83.8088 182.351 84.5822 179.575 86.1291 177.116C87.6483 174.63 89.7477 172.696 92.4271 171.315C95.1341 169.962 98.1865 169.285 101.584 169.285C104.982 169.285 108.034 169.962 110.741 171.315C113.448 172.696 115.561 174.616 117.08 177.075C118.572 179.533 119.318 182.323 119.318 185.444C119.318 188.593 118.572 191.397 117.08 193.856C115.561 196.342 113.448 198.275 110.741 199.656C108.034 201.065 104.982 201.769 101.584 201.769ZM101.584 192.985C103.518 192.985 105.106 192.322 106.349 190.997C107.564 189.671 108.172 187.82 108.172 185.444C108.172 183.124 107.564 181.315 106.349 180.017C105.106 178.691 103.518 178.028 101.584 178.028C99.6505 178.028 98.0621 178.691 96.8191 180.017C95.5761 181.315 94.9546 183.124 94.9546 185.444C94.9546 187.82 95.5761 189.671 96.8191 190.997C98.0621 192.322 99.6505 192.985 101.584 192.985ZM140.491 201.769C137.01 201.769 133.903 201.065 131.168 199.656C128.406 198.275 126.265 196.342 124.746 193.856C123.227 191.397 122.467 188.593 122.467 185.444C122.467 182.323 123.227 179.533 124.746 177.075C126.265 174.616 128.406 172.696 131.168 171.315C133.903 169.962 137.01 169.285 140.491 169.285C144.054 169.285 147.134 170.045 149.731 171.564C152.327 173.083 154.164 175.196 155.241 177.903L146.706 182.254C145.27 179.436 143.184 178.028 140.449 178.028C138.461 178.028 136.831 178.691 135.56 180.017C134.262 181.315 133.613 183.124 133.613 185.444C133.613 187.82 134.262 189.671 135.56 190.997C136.831 192.322 138.461 192.985 140.449 192.985C143.184 192.985 145.27 191.577 146.706 188.759L155.241 193.11C154.164 195.817 152.327 197.944 149.731 199.491C147.134 201.01 144.054 201.769 140.491 201.769ZM182.505 201.231L173.68 190.209L170.448 193.524V201.231H159.426V158.181H170.448V180.762L181.677 169.782H194.728L181.677 183.248L195.847 201.231H182.505ZM218.47 202.06C212.421 202.06 207.725 200.416 204.382 197.129C201.04 193.842 199.369 189.173 199.369 183.124V160.625H210.846V182.793C210.846 189.284 213.429 192.53 218.594 192.53C223.677 192.53 226.218 189.284 226.218 182.793V160.625H237.53V183.124C237.53 189.173 235.859 193.842 232.516 197.129C229.174 200.416 224.492 202.06 218.47 202.06ZM264.586 169.285C267.432 169.285 270.028 169.948 272.376 171.274C274.724 172.6 276.589 174.492 277.97 176.95C279.323 179.409 280 182.268 280 185.527C280 188.759 279.323 191.604 277.97 194.063C276.589 196.521 274.724 198.427 272.376 199.781C270.028 201.107 267.432 201.769 264.586 201.769C260.913 201.769 257.985 200.665 255.802 198.455V212.501H244.781V169.782H255.305V172.931C257.349 170.5 260.443 169.285 264.586 169.285ZM262.266 192.985C264.2 192.985 265.788 192.322 267.031 190.997C268.246 189.671 268.854 187.848 268.854 185.527C268.854 183.207 268.246 181.37 267.031 180.017C265.788 178.691 264.2 178.028 262.266 178.028C260.333 178.028 258.744 178.691 257.501 180.017C256.258 181.37 255.637 183.207 255.637 185.527C255.637 187.848 256.258 189.671 257.501 190.997C258.744 192.322 260.333 192.985 262.266 192.985Z"/>
</mask>
<path d="M37.1124 202.06C33.8252 202.06 30.6348 201.645 27.541 200.817C24.4473 200.015 21.9336 198.938 20 197.585L23.7705 189.132C25.5936 190.32 27.7068 191.287 30.11 192.032C32.5131 192.751 34.8749 193.11 37.1952 193.11C41.5873 193.11 43.7833 192.005 43.7833 189.795C43.7833 188.635 43.1618 187.779 41.9187 187.226C40.6481 186.674 38.6316 186.08 35.8693 185.444C32.8032 184.809 30.2481 184.105 28.204 183.331C26.1599 182.585 24.392 181.384 22.9004 179.726C21.4364 178.069 20.7044 175.818 20.7044 172.973C20.7044 170.514 21.3811 168.291 22.7347 166.302C24.0882 164.313 26.1185 162.738 28.8255 161.578C31.5049 160.418 34.792 159.838 38.6869 159.838C41.3663 159.838 44.0043 160.128 46.6008 160.708C49.1697 161.316 51.4486 162.2 53.4374 163.36L49.8741 171.895C46.0069 169.796 42.264 168.746 38.6454 168.746C36.3527 168.746 34.6815 169.092 33.6319 169.782C32.6098 170.445 32.0988 171.315 32.0988 172.393C32.0988 173.498 32.7065 174.312 33.9219 174.837C35.1649 175.39 37.1676 175.956 39.9299 176.536C43.0236 177.199 45.5788 177.903 47.5952 178.649C49.6393 179.395 51.3934 180.597 52.8574 182.254C54.349 183.884 55.0948 186.107 55.0948 188.925C55.0948 191.383 54.4181 193.593 53.0645 195.554C51.711 197.516 49.6807 199.09 46.9737 200.278C44.2667 201.466 40.9795 202.06 37.1124 202.06ZM78.8367 192.24L81.5713 199.946C80.6321 200.526 79.4996 200.982 78.1737 201.314C76.8478 201.618 75.4252 201.769 73.906 201.769C69.8178 201.769 66.6688 200.761 64.459 198.745C62.2491 196.728 61.1442 193.731 61.1442 189.754V179.188H56.545V170.942H61.1442V162.78H72.1657V170.942H79.3753V179.188H72.1657V189.629C72.1657 190.762 72.4696 191.646 73.0773 192.281C73.6574 192.916 74.4584 193.234 75.4805 193.234C76.7511 193.234 77.8699 192.903 78.8367 192.24ZM101.584 201.769C98.2141 201.769 95.1756 201.065 92.4685 199.656C89.7615 198.275 87.6483 196.342 86.1291 193.856C84.5822 191.397 83.8088 188.593 83.8088 185.444C83.8088 182.351 84.5822 179.575 86.1291 177.116C87.6483 174.63 89.7477 172.696 92.4271 171.315C95.1341 169.962 98.1865 169.285 101.584 169.285C104.982 169.285 108.034 169.962 110.741 171.315C113.448 172.696 115.561 174.616 117.08 177.075C118.572 179.533 119.318 182.323 119.318 185.444C119.318 188.593 118.572 191.397 117.08 193.856C115.561 196.342 113.448 198.275 110.741 199.656C108.034 201.065 104.982 201.769 101.584 201.769ZM101.584 192.985C103.518 192.985 105.106 192.322 106.349 190.997C107.564 189.671 108.172 187.82 108.172 185.444C108.172 183.124 107.564 181.315 106.349 180.017C105.106 178.691 103.518 178.028 101.584 178.028C99.6505 178.028 98.0621 178.691 96.8191 180.017C95.5761 181.315 94.9546 183.124 94.9546 185.444C94.9546 187.82 95.5761 189.671 96.8191 190.997C98.0621 192.322 99.6505 192.985 101.584 192.985ZM140.491 201.769C137.01 201.769 133.903 201.065 131.168 199.656C128.406 198.275 126.265 196.342 124.746 193.856C123.227 191.397 122.467 188.593 122.467 185.444C122.467 182.323 123.227 179.533 124.746 177.075C126.265 174.616 128.406 172.696 131.168 171.315C133.903 169.962 137.01 169.285 140.491 169.285C144.054 169.285 147.134 170.045 149.731 171.564C152.327 173.083 154.164 175.196 155.241 177.903L146.706 182.254C145.27 179.436 143.184 178.028 140.449 178.028C138.461 178.028 136.831 178.691 135.56 180.017C134.262 181.315 133.613 183.124 133.613 185.444C133.613 187.82 134.262 189.671 135.56 190.997C136.831 192.322 138.461 192.985 140.449 192.985C143.184 192.985 145.27 191.577 146.706 188.759L155.241 193.11C154.164 195.817 152.327 197.944 149.731 199.491C147.134 201.01 144.054 201.769 140.491 201.769ZM182.505 201.231L173.68 190.209L170.448 193.524V201.231H159.426V158.181H170.448V180.762L181.677 169.782H194.728L181.677 183.248L195.847 201.231H182.505ZM218.47 202.06C212.421 202.06 207.725 200.416 204.382 197.129C201.04 193.842 199.369 189.173 199.369 183.124V160.625H210.846V182.793C210.846 189.284 213.429 192.53 218.594 192.53C223.677 192.53 226.218 189.284 226.218 182.793V160.625H237.53V183.124C237.53 189.173 235.859 193.842 232.516 197.129C229.174 200.416 224.492 202.06 218.47 202.06ZM264.586 169.285C267.432 169.285 270.028 169.948 272.376 171.274C274.724 172.6 276.589 174.492 277.97 176.95C279.323 179.409 280 182.268 280 185.527C280 188.759 279.323 191.604 277.97 194.063C276.589 196.521 274.724 198.427 272.376 199.781C270.028 201.107 267.432 201.769 264.586 201.769C260.913 201.769 257.985 200.665 255.802 198.455V212.501H244.781V169.782H255.305V172.931C257.349 170.5 260.443 169.285 264.586 169.285ZM262.266 192.985C264.2 192.985 265.788 192.322 267.031 190.997C268.246 189.671 268.854 187.848 268.854 185.527C268.854 183.207 268.246 181.37 267.031 180.017C265.788 178.691 264.2 178.028 262.266 178.028C260.333 178.028 258.744 178.691 257.501 180.017C256.258 181.37 255.637 183.207 255.637 185.527C255.637 187.848 256.258 189.671 257.501 190.997C258.744 192.322 260.333 192.985 262.266 192.985Z" fill="black"/>
<path d="M37.1124 202.06C33.8252 202.06 30.6348 201.645 27.541 200.817C24.4473 200.015 21.9336 198.938 20 197.585L23.7705 189.132C25.5936 190.32 27.7068 191.287 30.11 192.032C32.5131 192.751 34.8749 193.11 37.1952 193.11C41.5873 193.11 43.7833 192.005 43.7833 189.795C43.7833 188.635 43.1618 187.779 41.9187 187.226C40.6481 186.674 38.6316 186.08 35.8693 185.444C32.8032 184.809 30.2481 184.105 28.204 183.331C26.1599 182.585 24.392 181.384 22.9004 179.726C21.4364 178.069 20.7044 175.818 20.7044 172.973C20.7044 170.514 21.3811 168.291 22.7347 166.302C24.0882 164.313 26.1185 162.738 28.8255 161.578C31.5049 160.418 34.792 159.838 38.6869 159.838C41.3663 159.838 44.0043 160.128 46.6008 160.708C49.1697 161.316 51.4486 162.2 53.4374 163.36L49.8741 171.895C46.0069 169.796 42.264 168.746 38.6454 168.746C36.3527 168.746 34.6815 169.092 33.6319 169.782C32.6098 170.445 32.0988 171.315 32.0988 172.393C32.0988 173.498 32.7065 174.312 33.9219 174.837C35.1649 175.39 37.1676 175.956 39.9299 176.536C43.0236 177.199 45.5788 177.903 47.5952 178.649C49.6393 179.395 51.3934 180.597 52.8574 182.254C54.349 183.884 55.0948 186.107 55.0948 188.925C55.0948 191.383 54.4181 193.593 53.0645 195.554C51.711 197.516 49.6807 199.09 46.9737 200.278C44.2667 201.466 40.9795 202.06 37.1124 202.06ZM78.8367 192.24L81.5713 199.946C80.6321 200.526 79.4996 200.982 78.1737 201.314C76.8478 201.618 75.4252 201.769 73.906 201.769C69.8178 201.769 66.6688 200.761 64.459 198.745C62.2491 196.728 61.1442 193.731 61.1442 189.754V179.188H56.545V170.942H61.1442V162.78H72.1657V170.942H79.3753V179.188H72.1657V189.629C72.1657 190.762 72.4696 191.646 73.0773 192.281C73.6574 192.916 74.4584 193.234 75.4805 193.234C76.7511 193.234 77.8699 192.903 78.8367 192.24ZM101.584 201.769C98.2141 201.769 95.1756 201.065 92.4685 199.656C89.7615 198.275 87.6483 196.342 86.1291 193.856C84.5822 191.397 83.8088 188.593 83.8088 185.444C83.8088 182.351 84.5822 179.575 86.1291 177.116C87.6483 174.63 89.7477 172.696 92.4271 171.315C95.1341 169.962 98.1865 169.285 101.584 169.285C104.982 169.285 108.034 169.962 110.741 171.315C113.448 172.696 115.561 174.616 117.08 177.075C118.572 179.533 119.318 182.323 119.318 185.444C119.318 188.593 118.572 191.397 117.08 193.856C115.561 196.342 113.448 198.275 110.741 199.656C108.034 201.065 104.982 201.769 101.584 201.769ZM101.584 192.985C103.518 192.985 105.106 192.322 106.349 190.997C107.564 189.671 108.172 187.82 108.172 185.444C108.172 183.124 107.564 181.315 106.349 180.017C105.106 178.691 103.518 178.028 101.584 178.028C99.6505 178.028 98.0621 178.691 96.8191 180.017C95.5761 181.315 94.9546 183.124 94.9546 185.444C94.9546 187.82 95.5761 189.671 96.8191 190.997C98.0621 192.322 99.6505 192.985 101.584 192.985ZM140.491 201.769C137.01 201.769 133.903 201.065 131.168 199.656C128.406 198.275 126.265 196.342 124.746 193.856C123.227 191.397 122.467 188.593 122.467 185.444C122.467 182.323 123.227 179.533 124.746 177.075C126.265 174.616 128.406 172.696 131.168 171.315C133.903 169.962 137.01 169.285 140.491 169.285C144.054 169.285 147.134 170.045 149.731 171.564C152.327 173.083 154.164 175.196 155.241 177.903L146.706 182.254C145.27 179.436 143.184 178.028 140.449 178.028C138.461 178.028 136.831 178.691 135.56 180.017C134.262 181.315 133.613 183.124 133.613 185.444C133.613 187.82 134.262 189.671 135.56 190.997C136.831 192.322 138.461 192.985 140.449 192.985C143.184 192.985 145.27 191.577 146.706 188.759L155.241 193.11C154.164 195.817 152.327 197.944 149.731 199.491C147.134 201.01 144.054 201.769 140.491 201.769ZM182.505 201.231L173.68 190.209L170.448 193.524V201.231H159.426V158.181H170.448V180.762L181.677 169.782H194.728L181.677 183.248L195.847 201.231H182.505ZM218.47 202.06C212.421 202.06 207.725 200.416 204.382 197.129C201.04 193.842 199.369 189.173 199.369 183.124V160.625H210.846V182.793C210.846 189.284 213.429 192.53 218.594 192.53C223.677 192.53 226.218 189.284 226.218 182.793V160.625H237.53V183.124C237.53 189.173 235.859 193.842 232.516 197.129C229.174 200.416 224.492 202.06 218.47 202.06ZM264.586 169.285C267.432 169.285 270.028 169.948 272.376 171.274C274.724 172.6 276.589 174.492 277.97 176.95C279.323 179.409 280 182.268 280 185.527C280 188.759 279.323 191.604 277.97 194.063C276.589 196.521 274.724 198.427 272.376 199.781C270.028 201.107 267.432 201.769 264.586 201.769C260.913 201.769 257.985 200.665 255.802 198.455V212.501H244.781V169.782H255.305V172.931C257.349 170.5 260.443 169.285 264.586 169.285ZM262.266 192.985C264.2 192.985 265.788 192.322 267.031 190.997C268.246 189.671 268.854 187.848 268.854 185.527C268.854 183.207 268.246 181.37 267.031 180.017C265.788 178.691 264.2 178.028 262.266 178.028C260.333 178.028 258.744 178.691 257.501 180.017C256.258 181.37 255.637 183.207 255.637 185.527C255.637 187.848 256.258 189.671 257.501 190.997C258.744 192.322 260.333 192.985 262.266 192.985Z" stroke="white" stroke-width="2" mask="url(#path-1-outside-1)"/>
</g>
</g>
<g id="69d496dc dddc 49ba a14e f9459b3d50ae" filter="url(#filter1_d)">
<path id="Vector_2" d="M111.415 140.181H188.585V63.0104H111.415V140.181ZM116.238 67.8335H183.762V135.357H116.238V67.8335Z" fill="url(#paint0_linear)"/>
<path id="Vector_3" d="M126.943 103.638H148.548L137.744 84.9701L126.943 103.638ZM151.452 95.1976H173.057L162.256 76.5296L151.452 95.1976ZM126.943 126.739H148.548L137.744 108.071L126.943 126.739ZM151.452 118.298H173.057L162.256 99.6301L151.452 118.298Z" fill="url(#paint1_linear)"/>
</g>
<g id="slogan" filter="url(#filter2_d)">
<g id="Vector_4">
<mask id="path-4-outside-2" maskUnits="userSpaceOnUse" x="51.5" y="221.501" width="198" height="17" fill="black">
<rect fill="white" x="51.5" y="221.501" width="198" height="17"/>
<path d="M57.7348 225.436C58.4867 225.436 59.173 225.607 59.7936 225.951C60.4142 226.301 60.907 226.801 61.272 227.451C61.6298 228.101 61.8087 228.853 61.8087 229.707C61.8087 230.568 61.6298 231.328 61.272 231.985C60.907 232.635 60.4142 233.138 59.7936 233.496C59.173 233.847 58.4867 234.022 57.7348 234.022C56.6396 234.022 55.8219 233.701 55.2816 233.058V233.879H52.5V222.501H55.4131V226.29C55.9752 225.721 56.7491 225.436 57.7348 225.436ZM57.1215 231.7C57.6325 231.7 58.0523 231.525 58.3809 231.174C58.7021 230.824 58.8627 230.335 58.8627 229.707C58.8627 229.094 58.7021 228.615 58.3809 228.272C58.0523 227.922 57.6325 227.747 57.1215 227.747C56.6104 227.747 56.1906 227.922 55.8621 228.272C55.5335 228.615 55.3693 229.094 55.3693 229.707C55.3693 230.335 55.5335 230.824 55.8621 231.174C56.1906 231.525 56.6104 231.7 57.1215 231.7ZM71.6539 229.74C71.6539 229.762 71.6393 230.003 71.6101 230.463H65.565C65.6891 230.893 65.9264 231.222 66.2768 231.448C66.6346 231.682 67.0763 231.799 67.6019 231.799C68.0035 231.799 68.3503 231.74 68.6423 231.623C68.9343 231.514 69.2264 231.331 69.5184 231.076L71.0516 232.675C70.2485 233.573 69.0694 234.022 67.5143 234.022C66.5433 234.022 65.6891 233.836 64.9517 233.463C64.2143 233.098 63.6448 232.587 63.2433 231.93C62.8417 231.28 62.641 230.539 62.641 229.707C62.641 228.889 62.8381 228.156 63.2323 227.506C63.6266 226.863 64.1705 226.356 64.8641 225.983C65.5577 225.618 66.3389 225.436 67.2077 225.436C68.0327 225.436 68.7847 225.607 69.4637 225.951C70.1353 226.294 70.6683 226.787 71.0626 227.429C71.4568 228.079 71.6539 228.849 71.6539 229.74ZM67.2186 227.506C66.7733 227.506 66.4009 227.634 66.1016 227.889C65.795 228.145 65.6015 228.491 65.5212 228.929H68.927C68.8467 228.491 68.6533 228.145 68.3466 227.889C68.0473 227.634 67.6713 227.506 67.2186 227.506ZM76.0235 234.022C75.3299 234.022 74.6437 233.941 73.9647 233.781C73.293 233.62 72.7527 233.412 72.3439 233.157L73.22 231.163C73.5996 231.404 74.0486 231.591 74.567 231.722C75.0854 231.861 75.6001 231.93 76.1111 231.93C76.5857 231.93 76.9215 231.883 77.1187 231.788C77.3158 231.693 77.4144 231.554 77.4144 231.372C77.4144 231.182 77.2939 231.05 77.053 230.977C76.8193 230.897 76.4397 230.824 75.914 230.758C75.2496 230.671 74.6838 230.561 74.2166 230.43C73.7566 230.298 73.3587 230.054 73.0229 229.696C72.6797 229.338 72.5081 228.838 72.5081 228.196C72.5081 227.663 72.6688 227.188 72.99 226.772C73.3039 226.363 73.7639 226.038 74.3699 225.797C74.9832 225.556 75.7132 225.436 76.5601 225.436C77.1661 225.436 77.7648 225.498 78.3562 225.622C78.9475 225.739 79.444 225.91 79.8456 226.137L78.9694 228.119C78.2321 227.71 77.4326 227.506 76.5711 227.506C76.1111 227.506 75.7753 227.557 75.5636 227.659C75.3518 227.769 75.246 227.911 75.246 228.086C75.246 228.283 75.3628 228.418 75.5964 228.491C75.8301 228.572 76.217 228.652 76.7573 228.732C77.4436 228.835 78.013 228.951 78.4657 229.083C78.911 229.214 79.3016 229.455 79.6375 229.806C79.966 230.163 80.1303 230.66 80.1303 231.295C80.1303 231.813 79.9733 232.281 79.6594 232.697C79.3381 233.106 78.8709 233.43 78.2576 233.671C77.637 233.905 76.8923 234.022 76.0235 234.022ZM86.4054 231.503L87.1282 233.54C86.88 233.693 86.5806 233.814 86.2302 233.901C85.8725 233.982 85.4965 234.022 85.1022 234.022C84.0144 234.022 83.1821 233.755 82.6053 233.222C82.0212 232.689 81.7292 231.897 81.7292 230.846V228.053H80.5136V225.874H81.7292V223.717H84.6423V225.874H86.5368V228.053H84.6423V230.813C84.6423 231.112 84.7189 231.346 84.8722 231.514C85.0329 231.682 85.2482 231.766 85.5184 231.766C85.8542 231.766 86.1499 231.678 86.4054 231.503ZM103.917 225.567H106.468L103.511 233.879H100.697L99.1309 229.357L97.4992 233.879H94.6847L91.7278 225.567H94.4875L96.185 230.605L97.9482 225.567H100.434L102.153 230.649L103.917 225.567ZM110.904 225.436C112.284 225.436 113.335 225.75 114.058 226.378C114.788 227.006 115.153 227.969 115.153 229.269V233.879H112.437V232.806C112.021 233.617 111.203 234.022 109.984 234.022C109.341 234.022 108.783 233.909 108.308 233.682C107.841 233.456 107.487 233.153 107.246 232.773C107.005 232.386 106.884 231.948 106.884 231.459C106.884 230.671 107.187 230.061 107.793 229.63C108.392 229.192 109.323 228.973 110.586 228.973H112.24C112.189 228.097 111.601 227.659 110.477 227.659C110.075 227.659 109.67 227.721 109.261 227.845C108.852 227.977 108.505 228.156 108.221 228.382L107.235 226.4C107.695 226.093 108.257 225.856 108.921 225.688C109.579 225.52 110.239 225.436 110.904 225.436ZM110.794 232.182C111.13 232.182 111.426 232.098 111.681 231.93C111.937 231.769 112.123 231.532 112.24 231.218V230.495H110.98C110.133 230.495 109.71 230.777 109.71 231.339C109.71 231.594 109.805 231.799 109.995 231.952C110.192 232.105 110.458 232.182 110.794 232.182ZM122.972 225.567H125.743L122.162 234.219C121.738 235.241 121.227 235.96 120.628 236.376C120.022 236.785 119.285 236.99 118.416 236.99C117.978 236.99 117.537 236.92 117.091 236.782C116.646 236.65 116.284 236.471 116.007 236.245L117.025 234.208C117.186 234.361 117.38 234.478 117.606 234.558C117.839 234.646 118.073 234.69 118.307 234.69C118.584 234.69 118.811 234.635 118.986 234.526C119.168 234.416 119.322 234.237 119.446 233.989L115.887 225.567H118.876L120.913 230.649L122.972 225.567ZM135.971 231.503L136.694 233.54C136.446 233.693 136.147 233.814 135.796 233.901C135.446 233.982 135.07 234.022 134.668 234.022C133.588 234.022 132.755 233.755 132.171 233.222C131.587 232.689 131.295 231.897 131.295 230.846V228.053H130.079V225.874H131.295V223.717H134.208V225.874H136.114V228.053H134.208V230.813C134.208 231.112 134.288 231.346 134.449 231.514C134.602 231.682 134.814 231.766 135.084 231.766C135.42 231.766 135.716 231.678 135.971 231.503ZM141.984 234.022C141.093 234.022 140.29 233.836 139.574 233.463C138.859 233.098 138.3 232.587 137.899 231.93C137.49 231.28 137.285 230.539 137.285 229.707C137.285 228.889 137.49 228.156 137.899 227.506C138.3 226.849 138.855 226.338 139.563 225.973C140.279 225.615 141.086 225.436 141.984 225.436C142.882 225.436 143.688 225.615 144.404 225.973C145.119 226.338 145.678 226.845 146.079 227.495C146.474 228.145 146.671 228.882 146.671 229.707C146.671 230.539 146.474 231.28 146.079 231.93C145.678 232.587 145.119 233.098 144.404 233.463C143.688 233.836 142.882 234.022 141.984 234.022ZM141.984 231.7C142.495 231.7 142.914 231.525 143.243 231.174C143.564 230.824 143.725 230.335 143.725 229.707C143.725 229.094 143.564 228.615 143.243 228.272C142.914 227.922 142.495 227.747 141.984 227.747C141.473 227.747 141.053 227.922 140.724 228.272C140.396 228.615 140.231 229.094 140.231 229.707C140.231 230.335 140.396 230.824 140.724 231.174C141.053 231.525 141.473 231.7 141.984 231.7ZM155.509 234.022C154.808 234.022 154.121 233.941 153.45 233.781C152.778 233.62 152.238 233.412 151.829 233.157L152.694 231.163C153.074 231.404 153.526 231.591 154.052 231.722C154.57 231.861 155.085 231.93 155.596 231.93C156.063 231.93 156.399 231.883 156.604 231.788C156.801 231.693 156.899 231.554 156.899 231.372C156.899 231.182 156.779 231.05 156.538 230.977C156.297 230.897 155.917 230.824 155.399 230.758C154.735 230.671 154.169 230.561 153.702 230.43C153.234 230.298 152.833 230.054 152.497 229.696C152.161 229.338 151.993 228.838 151.993 228.196C151.993 227.663 152.15 227.188 152.464 226.772C152.785 226.363 153.249 226.038 153.855 225.797C154.461 225.556 155.191 225.436 156.045 225.436C156.644 225.436 157.239 225.498 157.83 225.622C158.429 225.739 158.925 225.91 159.32 226.137L158.444 228.119C157.713 227.71 156.918 227.506 156.056 227.506C155.596 227.506 155.26 227.557 155.049 227.659C154.83 227.769 154.72 227.911 154.72 228.086C154.72 228.283 154.837 228.418 155.07 228.491C155.311 228.572 155.702 228.652 156.242 228.732C156.929 228.835 157.494 228.951 157.94 229.083C158.392 229.214 158.783 229.455 159.112 229.806C159.447 230.163 159.615 230.66 159.615 231.295C159.615 231.813 159.455 232.281 159.133 232.697C158.82 233.106 158.352 233.43 157.732 233.671C157.118 233.905 156.377 234.022 155.509 234.022ZM165.879 231.503L166.602 233.54C166.361 233.693 166.062 233.814 165.704 233.901C165.354 233.982 164.978 234.022 164.576 234.022C163.496 234.022 162.663 233.755 162.079 233.222C161.495 232.689 161.203 231.897 161.203 230.846V228.053H159.999V225.874H161.203V223.717H164.116V225.874H166.022V228.053H164.116V230.813C164.116 231.112 164.197 231.346 164.357 231.514C164.518 231.682 164.73 231.766 164.992 231.766C165.328 231.766 165.624 231.678 165.879 231.503ZM171.268 225.436C172.647 225.436 173.699 225.75 174.422 226.378C175.152 227.006 175.517 227.969 175.517 229.269V233.879H172.801V232.806C172.377 233.617 171.56 234.022 170.348 234.022C169.705 234.022 169.147 233.909 168.672 233.682C168.205 233.456 167.851 233.153 167.61 232.773C167.369 232.386 167.248 231.948 167.248 231.459C167.248 230.671 167.551 230.061 168.157 229.63C168.756 229.192 169.683 228.973 170.939 228.973H172.604C172.553 228.097 171.965 227.659 170.84 227.659C170.439 227.659 170.034 227.721 169.625 227.845C169.216 227.977 168.869 228.156 168.584 228.382L167.599 226.4C168.059 226.093 168.617 225.856 169.274 225.688C169.939 225.52 170.603 225.436 171.268 225.436ZM171.158 232.182C171.494 232.182 171.79 232.098 172.045 231.93C172.301 231.769 172.487 231.532 172.604 231.218V230.495H171.344C170.497 230.495 170.074 230.777 170.074 231.339C170.074 231.594 170.169 231.799 170.359 231.952C170.556 232.105 170.822 232.182 171.158 232.182ZM183.336 225.567H186.107L182.515 234.219C182.098 235.241 181.587 235.96 180.981 236.376C180.383 236.785 179.649 236.99 178.78 236.99C178.342 236.99 177.9 236.92 177.455 236.782C177.01 236.65 176.648 236.471 176.371 236.245L177.378 234.208C177.546 234.361 177.743 234.478 177.97 234.558C178.203 234.646 178.437 234.69 178.671 234.69C178.948 234.69 179.174 234.635 179.35 234.526C179.532 234.416 179.686 234.237 179.81 233.989L176.25 225.567H179.24L181.277 230.649L183.336 225.567ZM195.492 234.022C194.601 234.022 193.798 233.836 193.083 233.463C192.367 233.098 191.809 232.587 191.407 231.93C190.998 231.28 190.794 230.539 190.794 229.707C190.794 228.889 190.998 228.156 191.407 227.506C191.809 226.849 192.364 226.338 193.072 225.973C193.787 225.615 194.594 225.436 195.492 225.436C196.39 225.436 197.197 225.615 197.912 225.973C198.628 226.338 199.186 226.845 199.588 227.495C199.982 228.145 200.179 228.882 200.179 229.707C200.179 230.539 199.982 231.28 199.588 231.93C199.186 232.587 198.628 233.098 197.912 233.463C197.197 233.836 196.39 234.022 195.492 234.022ZM195.492 231.7C196.003 231.7 196.423 231.525 196.751 231.174C197.073 230.824 197.233 230.335 197.233 229.707C197.233 229.094 197.073 228.615 196.751 228.272C196.423 227.922 196.003 227.747 195.492 227.747C194.981 227.747 194.561 227.922 194.233 228.272C193.904 228.615 193.74 229.094 193.74 229.707C193.74 230.335 193.904 230.824 194.233 231.174C194.561 231.525 194.981 231.7 195.492 231.7ZM206.947 225.436C207.977 225.436 208.805 225.743 209.433 226.356C210.061 226.969 210.375 227.893 210.375 229.127V233.879H207.462V229.608C207.462 228.469 207.009 227.9 206.104 227.9C205.6 227.9 205.199 228.064 204.899 228.393C204.593 228.721 204.439 229.21 204.439 229.86V233.879H201.526V225.567H204.308V226.476C204.636 226.14 205.023 225.881 205.469 225.699C205.921 225.524 206.414 225.436 206.947 225.436ZM221.677 231.503L222.399 233.54C222.151 233.693 221.852 233.814 221.501 233.901C221.151 233.982 220.775 234.022 220.373 234.022C219.293 234.022 218.461 233.755 217.877 233.222C217.292 232.689 217 231.897 217 230.846V228.053H215.785V225.874H217V223.717H219.914V225.874H221.819V228.053H219.914V230.813C219.914 231.112 219.994 231.346 220.154 231.514C220.308 231.682 220.519 231.766 220.79 231.766C221.125 231.766 221.421 231.678 221.677 231.503ZM227.689 234.022C226.798 234.022 225.995 233.836 225.28 233.463C224.564 233.098 224.006 232.587 223.604 231.93C223.195 231.28 222.991 230.539 222.991 229.707C222.991 228.889 223.195 228.156 223.604 227.506C224.006 226.849 224.561 226.338 225.269 225.973C225.984 225.615 226.791 225.436 227.689 225.436C228.587 225.436 229.394 225.615 230.109 225.973C230.825 226.338 231.383 226.845 231.785 227.495C232.179 228.145 232.376 228.882 232.376 229.707C232.376 230.539 232.179 231.28 231.785 231.93C231.383 232.587 230.825 233.098 230.109 233.463C229.394 233.836 228.587 234.022 227.689 234.022ZM227.689 231.7C228.2 231.7 228.62 231.525 228.948 231.174C229.27 230.824 229.43 230.335 229.43 229.707C229.43 229.094 229.27 228.615 228.948 228.272C228.62 227.922 228.2 227.747 227.689 227.747C227.178 227.747 226.758 227.922 226.43 228.272C226.101 228.615 225.937 229.094 225.937 229.707C225.937 230.335 226.101 230.824 226.43 231.174C226.758 231.525 227.178 231.7 227.689 231.7ZM238.958 225.436C239.71 225.436 240.396 225.611 241.017 225.962C241.637 226.312 242.13 226.812 242.495 227.462C242.853 228.112 243.032 228.867 243.032 229.729C243.032 230.583 242.853 231.335 242.495 231.985C242.13 232.635 241.637 233.138 241.017 233.496C240.396 233.847 239.71 234.022 238.958 234.022C237.987 234.022 237.213 233.73 236.636 233.146V236.858H233.723V225.567H236.505V226.4C237.045 225.757 237.863 225.436 238.958 225.436ZM238.345 231.7C238.856 231.7 239.276 231.525 239.604 231.174C239.925 230.824 240.086 230.342 240.086 229.729C240.086 229.116 239.925 228.63 239.604 228.272C239.276 227.922 238.856 227.747 238.345 227.747C237.834 227.747 237.414 227.922 237.085 228.272C236.757 228.63 236.592 229.116 236.592 229.729C236.592 230.342 236.757 230.824 237.085 231.174C237.414 231.525 237.834 231.7 238.345 231.7ZM244.598 229.97L244.028 223.147H247.5L246.909 229.97H244.598ZM245.759 234.022C245.248 234.022 244.832 233.865 244.51 233.551C244.182 233.237 244.017 232.857 244.017 232.412C244.017 231.952 244.182 231.572 244.51 231.273C244.832 230.981 245.248 230.835 245.759 230.835C246.27 230.835 246.69 230.981 247.018 231.273C247.339 231.572 247.5 231.952 247.5 232.412C247.5 232.857 247.336 233.237 247.007 233.551C246.679 233.865 246.263 234.022 245.759 234.022Z"/>
</mask>
<path d="M57.7348 225.436C58.4867 225.436 59.173 225.607 59.7936 225.951C60.4142 226.301 60.907 226.801 61.272 227.451C61.6298 228.101 61.8087 228.853 61.8087 229.707C61.8087 230.568 61.6298 231.328 61.272 231.985C60.907 232.635 60.4142 233.138 59.7936 233.496C59.173 233.847 58.4867 234.022 57.7348 234.022C56.6396 234.022 55.8219 233.701 55.2816 233.058V233.879H52.5V222.501H55.4131V226.29C55.9752 225.721 56.7491 225.436 57.7348 225.436ZM57.1215 231.7C57.6325 231.7 58.0523 231.525 58.3809 231.174C58.7021 230.824 58.8627 230.335 58.8627 229.707C58.8627 229.094 58.7021 228.615 58.3809 228.272C58.0523 227.922 57.6325 227.747 57.1215 227.747C56.6104 227.747 56.1906 227.922 55.8621 228.272C55.5335 228.615 55.3693 229.094 55.3693 229.707C55.3693 230.335 55.5335 230.824 55.8621 231.174C56.1906 231.525 56.6104 231.7 57.1215 231.7ZM71.6539 229.74C71.6539 229.762 71.6393 230.003 71.6101 230.463H65.565C65.6891 230.893 65.9264 231.222 66.2768 231.448C66.6346 231.682 67.0763 231.799 67.6019 231.799C68.0035 231.799 68.3503 231.74 68.6423 231.623C68.9343 231.514 69.2264 231.331 69.5184 231.076L71.0516 232.675C70.2485 233.573 69.0694 234.022 67.5143 234.022C66.5433 234.022 65.6891 233.836 64.9517 233.463C64.2143 233.098 63.6448 232.587 63.2433 231.93C62.8417 231.28 62.641 230.539 62.641 229.707C62.641 228.889 62.8381 228.156 63.2323 227.506C63.6266 226.863 64.1705 226.356 64.8641 225.983C65.5577 225.618 66.3389 225.436 67.2077 225.436C68.0327 225.436 68.7847 225.607 69.4637 225.951C70.1353 226.294 70.6683 226.787 71.0626 227.429C71.4568 228.079 71.6539 228.849 71.6539 229.74ZM67.2186 227.506C66.7733 227.506 66.4009 227.634 66.1016 227.889C65.795 228.145 65.6015 228.491 65.5212 228.929H68.927C68.8467 228.491 68.6533 228.145 68.3466 227.889C68.0473 227.634 67.6713 227.506 67.2186 227.506ZM76.0235 234.022C75.3299 234.022 74.6437 233.941 73.9647 233.781C73.293 233.62 72.7527 233.412 72.3439 233.157L73.22 231.163C73.5996 231.404 74.0486 231.591 74.567 231.722C75.0854 231.861 75.6001 231.93 76.1111 231.93C76.5857 231.93 76.9215 231.883 77.1187 231.788C77.3158 231.693 77.4144 231.554 77.4144 231.372C77.4144 231.182 77.2939 231.05 77.053 230.977C76.8193 230.897 76.4397 230.824 75.914 230.758C75.2496 230.671 74.6838 230.561 74.2166 230.43C73.7566 230.298 73.3587 230.054 73.0229 229.696C72.6797 229.338 72.5081 228.838 72.5081 228.196C72.5081 227.663 72.6688 227.188 72.99 226.772C73.3039 226.363 73.7639 226.038 74.3699 225.797C74.9832 225.556 75.7132 225.436 76.5601 225.436C77.1661 225.436 77.7648 225.498 78.3562 225.622C78.9475 225.739 79.444 225.91 79.8456 226.137L78.9694 228.119C78.2321 227.71 77.4326 227.506 76.5711 227.506C76.1111 227.506 75.7753 227.557 75.5636 227.659C75.3518 227.769 75.246 227.911 75.246 228.086C75.246 228.283 75.3628 228.418 75.5964 228.491C75.8301 228.572 76.217 228.652 76.7573 228.732C77.4436 228.835 78.013 228.951 78.4657 229.083C78.911 229.214 79.3016 229.455 79.6375 229.806C79.966 230.163 80.1303 230.66 80.1303 231.295C80.1303 231.813 79.9733 232.281 79.6594 232.697C79.3381 233.106 78.8709 233.43 78.2576 233.671C77.637 233.905 76.8923 234.022 76.0235 234.022ZM86.4054 231.503L87.1282 233.54C86.88 233.693 86.5806 233.814 86.2302 233.901C85.8725 233.982 85.4965 234.022 85.1022 234.022C84.0144 234.022 83.1821 233.755 82.6053 233.222C82.0212 232.689 81.7292 231.897 81.7292 230.846V228.053H80.5136V225.874H81.7292V223.717H84.6423V225.874H86.5368V228.053H84.6423V230.813C84.6423 231.112 84.7189 231.346 84.8722 231.514C85.0329 231.682 85.2482 231.766 85.5184 231.766C85.8542 231.766 86.1499 231.678 86.4054 231.503ZM103.917 225.567H106.468L103.511 233.879H100.697L99.1309 229.357L97.4992 233.879H94.6847L91.7278 225.567H94.4875L96.185 230.605L97.9482 225.567H100.434L102.153 230.649L103.917 225.567ZM110.904 225.436C112.284 225.436 113.335 225.75 114.058 226.378C114.788 227.006 115.153 227.969 115.153 229.269V233.879H112.437V232.806C112.021 233.617 111.203 234.022 109.984 234.022C109.341 234.022 108.783 233.909 108.308 233.682C107.841 233.456 107.487 233.153 107.246 232.773C107.005 232.386 106.884 231.948 106.884 231.459C106.884 230.671 107.187 230.061 107.793 229.63C108.392 229.192 109.323 228.973 110.586 228.973H112.24C112.189 228.097 111.601 227.659 110.477 227.659C110.075 227.659 109.67 227.721 109.261 227.845C108.852 227.977 108.505 228.156 108.221 228.382L107.235 226.4C107.695 226.093 108.257 225.856 108.921 225.688C109.579 225.52 110.239 225.436 110.904 225.436ZM110.794 232.182C111.13 232.182 111.426 232.098 111.681 231.93C111.937 231.769 112.123 231.532 112.24 231.218V230.495H110.98C110.133 230.495 109.71 230.777 109.71 231.339C109.71 231.594 109.805 231.799 109.995 231.952C110.192 232.105 110.458 232.182 110.794 232.182ZM122.972 225.567H125.743L122.162 234.219C121.738 235.241 121.227 235.96 120.628 236.376C120.022 236.785 119.285 236.99 118.416 236.99C117.978 236.99 117.537 236.92 117.091 236.782C116.646 236.65 116.284 236.471 116.007 236.245L117.025 234.208C117.186 234.361 117.38 234.478 117.606 234.558C117.839 234.646 118.073 234.69 118.307 234.69C118.584 234.69 118.811 234.635 118.986 234.526C119.168 234.416 119.322 234.237 119.446 233.989L115.887 225.567H118.876L120.913 230.649L122.972 225.567ZM135.971 231.503L136.694 233.54C136.446 233.693 136.147 233.814 135.796 233.901C135.446 233.982 135.07 234.022 134.668 234.022C133.588 234.022 132.755 233.755 132.171 233.222C131.587 232.689 131.295 231.897 131.295 230.846V228.053H130.079V225.874H131.295V223.717H134.208V225.874H136.114V228.053H134.208V230.813C134.208 231.112 134.288 231.346 134.449 231.514C134.602 231.682 134.814 231.766 135.084 231.766C135.42 231.766 135.716 231.678 135.971 231.503ZM141.984 234.022C141.093 234.022 140.29 233.836 139.574 233.463C138.859 233.098 138.3 232.587 137.899 231.93C137.49 231.28 137.285 230.539 137.285 229.707C137.285 228.889 137.49 228.156 137.899 227.506C138.3 226.849 138.855 226.338 139.563 225.973C140.279 225.615 141.086 225.436 141.984 225.436C142.882 225.436 143.688 225.615 144.404 225.973C145.119 226.338 145.678 226.845 146.079 227.495C146.474 228.145 146.671 228.882 146.671 229.707C146.671 230.539 146.474 231.28 146.079 231.93C145.678 232.587 145.119 233.098 144.404 233.463C143.688 233.836 142.882 234.022 141.984 234.022ZM141.984 231.7C142.495 231.7 142.914 231.525 143.243 231.174C143.564 230.824 143.725 230.335 143.725 229.707C143.725 229.094 143.564 228.615 143.243 228.272C142.914 227.922 142.495 227.747 141.984 227.747C141.473 227.747 141.053 227.922 140.724 228.272C140.396 228.615 140.231 229.094 140.231 229.707C140.231 230.335 140.396 230.824 140.724 231.174C141.053 231.525 141.473 231.7 141.984 231.7ZM155.509 234.022C154.808 234.022 154.121 233.941 153.45 233.781C152.778 233.62 152.238 233.412 151.829 233.157L152.694 231.163C153.074 231.404 153.526 231.591 154.052 231.722C154.57 231.861 155.085 231.93 155.596 231.93C156.063 231.93 156.399 231.883 156.604 231.788C156.801 231.693 156.899 231.554 156.899 231.372C156.899 231.182 156.779 231.05 156.538 230.977C156.297 230.897 155.917 230.824 155.399 230.758C154.735 230.671 154.169 230.561 153.702 230.43C153.234 230.298 152.833 230.054 152.497 229.696C152.161 229.338 151.993 228.838 151.993 228.196C151.993 227.663 152.15 227.188 152.464 226.772C152.785 226.363 153.249 226.038 153.855 225.797C154.461 225.556 155.191 225.436 156.045 225.436C156.644 225.436 157.239 225.498 157.83 225.622C158.429 225.739 158.925 225.91 159.32 226.137L158.444 228.119C157.713 227.71 156.918 227.506 156.056 227.506C155.596 227.506 155.26 227.557 155.049 227.659C154.83 227.769 154.72 227.911 154.72 228.086C154.72 228.283 154.837 228.418 155.07 228.491C155.311 228.572 155.702 228.652 156.242 228.732C156.929 228.835 157.494 228.951 157.94 229.083C158.392 229.214 158.783 229.455 159.112 229.806C159.447 230.163 159.615 230.66 159.615 231.295C159.615 231.813 159.455 232.281 159.133 232.697C158.82 233.106 158.352 233.43 157.732 233.671C157.118 233.905 156.377 234.022 155.509 234.022ZM165.879 231.503L166.602 233.54C166.361 233.693 166.062 233.814 165.704 233.901C165.354 233.982 164.978 234.022 164.576 234.022C163.496 234.022 162.663 233.755 162.079 233.222C161.495 232.689 161.203 231.897 161.203 230.846V228.053H159.999V225.874H161.203V223.717H164.116V225.874H166.022V228.053H164.116V230.813C164.116 231.112 164.197 231.346 164.357 231.514C164.518 231.682 164.73 231.766 164.992 231.766C165.328 231.766 165.624 231.678 165.879 231.503ZM171.268 225.436C172.647 225.436 173.699 225.75 174.422 226.378C175.152 227.006 175.517 227.969 175.517 229.269V233.879H172.801V232.806C172.377 233.617 171.56 234.022 170.348 234.022C169.705 234.022 169.147 233.909 168.672 233.682C168.205 233.456 167.851 233.153 167.61 232.773C167.369 232.386 167.248 231.948 167.248 231.459C167.248 230.671 167.551 230.061 168.157 229.63C168.756 229.192 169.683 228.973 170.939 228.973H172.604C172.553 228.097 171.965 227.659 170.84 227.659C170.439 227.659 170.034 227.721 169.625 227.845C169.216 227.977 168.869 228.156 168.584 228.382L167.599 226.4C168.059 226.093 168.617 225.856 169.274 225.688C169.939 225.52 170.603 225.436 171.268 225.436ZM171.158 232.182C171.494 232.182 171.79 232.098 172.045 231.93C172.301 231.769 172.487 231.532 172.604 231.218V230.495H171.344C170.497 230.495 170.074 230.777 170.074 231.339C170.074 231.594 170.169 231.799 170.359 231.952C170.556 232.105 170.822 232.182 171.158 232.182ZM183.336 225.567H186.107L182.515 234.219C182.098 235.241 181.587 235.96 180.981 236.376C180.383 236.785 179.649 236.99 178.78 236.99C178.342 236.99 177.9 236.92 177.455 236.782C177.01 236.65 176.648 236.471 176.371 236.245L177.378 234.208C177.546 234.361 177.743 234.478 177.97 234.558C178.203 234.646 178.437 234.69 178.671 234.69C178.948 234.69 179.174 234.635 179.35 234.526C179.532 234.416 179.686 234.237 179.81 233.989L176.25 225.567H179.24L181.277 230.649L183.336 225.567ZM195.492 234.022C194.601 234.022 193.798 233.836 193.083 233.463C192.367 233.098 191.809 232.587 191.407 231.93C190.998 231.28 190.794 230.539 190.794 229.707C190.794 228.889 190.998 228.156 191.407 227.506C191.809 226.849 192.364 226.338 193.072 225.973C193.787 225.615 194.594 225.436 195.492 225.436C196.39 225.436 197.197 225.615 197.912 225.973C198.628 226.338 199.186 226.845 199.588 227.495C199.982 228.145 200.179 228.882 200.179 229.707C200.179 230.539 199.982 231.28 199.588 231.93C199.186 232.587 198.628 233.098 197.912 233.463C197.197 233.836 196.39 234.022 195.492 234.022ZM195.492 231.7C196.003 231.7 196.423 231.525 196.751 231.174C197.073 230.824 197.233 230.335 197.233 229.707C197.233 229.094 197.073 228.615 196.751 228.272C196.423 227.922 196.003 227.747 195.492 227.747C194.981 227.747 194.561 227.922 194.233 228.272C193.904 228.615 193.74 229.094 193.74 229.707C193.74 230.335 193.904 230.824 194.233 231.174C194.561 231.525 194.981 231.7 195.492 231.7ZM206.947 225.436C207.977 225.436 208.805 225.743 209.433 226.356C210.061 226.969 210.375 227.893 210.375 229.127V233.879H207.462V229.608C207.462 228.469 207.009 227.9 206.104 227.9C205.6 227.9 205.199 228.064 204.899 228.393C204.593 228.721 204.439 229.21 204.439 229.86V233.879H201.526V225.567H204.308V226.476C204.636 226.14 205.023 225.881 205.469 225.699C205.921 225.524 206.414 225.436 206.947 225.436ZM221.677 231.503L222.399 233.54C222.151 233.693 221.852 233.814 221.501 233.901C221.151 233.982 220.775 234.022 220.373 234.022C219.293 234.022 218.461 233.755 217.877 233.222C217.292 232.689 217 231.897 217 230.846V228.053H215.785V225.874H217V223.717H219.914V225.874H221.819V228.053H219.914V230.813C219.914 231.112 219.994 231.346 220.154 231.514C220.308 231.682 220.519 231.766 220.79 231.766C221.125 231.766 221.421 231.678 221.677 231.503ZM227.689 234.022C226.798 234.022 225.995 233.836 225.28 233.463C224.564 233.098 224.006 232.587 223.604 231.93C223.195 231.28 222.991 230.539 222.991 229.707C222.991 228.889 223.195 228.156 223.604 227.506C224.006 226.849 224.561 226.338 225.269 225.973C225.984 225.615 226.791 225.436 227.689 225.436C228.587 225.436 229.394 225.615 230.109 225.973C230.825 226.338 231.383 226.845 231.785 227.495C232.179 228.145 232.376 228.882 232.376 229.707C232.376 230.539 232.179 231.28 231.785 231.93C231.383 232.587 230.825 233.098 230.109 233.463C229.394 233.836 228.587 234.022 227.689 234.022ZM227.689 231.7C228.2 231.7 228.62 231.525 228.948 231.174C229.27 230.824 229.43 230.335 229.43 229.707C229.43 229.094 229.27 228.615 228.948 228.272C228.62 227.922 228.2 227.747 227.689 227.747C227.178 227.747 226.758 227.922 226.43 228.272C226.101 228.615 225.937 229.094 225.937 229.707C225.937 230.335 226.101 230.824 226.43 231.174C226.758 231.525 227.178 231.7 227.689 231.7ZM238.958 225.436C239.71 225.436 240.396 225.611 241.017 225.962C241.637 226.312 242.13 226.812 242.495 227.462C242.853 228.112 243.032 228.867 243.032 229.729C243.032 230.583 242.853 231.335 242.495 231.985C242.13 232.635 241.637 233.138 241.017 233.496C240.396 233.847 239.71 234.022 238.958 234.022C237.987 234.022 237.213 233.73 236.636 233.146V236.858H233.723V225.567H236.505V226.4C237.045 225.757 237.863 225.436 238.958 225.436ZM238.345 231.7C238.856 231.7 239.276 231.525 239.604 231.174C239.925 230.824 240.086 230.342 240.086 229.729C240.086 229.116 239.925 228.63 239.604 228.272C239.276 227.922 238.856 227.747 238.345 227.747C237.834 227.747 237.414 227.922 237.085 228.272C236.757 228.63 236.592 229.116 236.592 229.729C236.592 230.342 236.757 230.824 237.085 231.174C237.414 231.525 237.834 231.7 238.345 231.7ZM244.598 229.97L244.028 223.147H247.5L246.909 229.97H244.598ZM245.759 234.022C245.248 234.022 244.832 233.865 244.51 233.551C244.182 233.237 244.017 232.857 244.017 232.412C244.017 231.952 244.182 231.572 244.51 231.273C244.832 230.981 245.248 230.835 245.759 230.835C246.27 230.835 246.69 230.981 247.018 231.273C247.339 231.572 247.5 231.952 247.5 232.412C247.5 232.857 247.336 233.237 247.007 233.551C246.679 233.865 246.263 234.022 245.759 234.022Z" fill="black"/>
<path d="M57.7348 225.436C58.4867 225.436 59.173 225.607 59.7936 225.951C60.4142 226.301 60.907 226.801 61.272 227.451C61.6298 228.101 61.8087 228.853 61.8087 229.707C61.8087 230.568 61.6298 231.328 61.272 231.985C60.907 232.635 60.4142 233.138 59.7936 233.496C59.173 233.847 58.4867 234.022 57.7348 234.022C56.6396 234.022 55.8219 233.701 55.2816 233.058V233.879H52.5V222.501H55.4131V226.29C55.9752 225.721 56.7491 225.436 57.7348 225.436ZM57.1215 231.7C57.6325 231.7 58.0523 231.525 58.3809 231.174C58.7021 230.824 58.8627 230.335 58.8627 229.707C58.8627 229.094 58.7021 228.615 58.3809 228.272C58.0523 227.922 57.6325 227.747 57.1215 227.747C56.6104 227.747 56.1906 227.922 55.8621 228.272C55.5335 228.615 55.3693 229.094 55.3693 229.707C55.3693 230.335 55.5335 230.824 55.8621 231.174C56.1906 231.525 56.6104 231.7 57.1215 231.7ZM71.6539 229.74C71.6539 229.762 71.6393 230.003 71.6101 230.463H65.565C65.6891 230.893 65.9264 231.222 66.2768 231.448C66.6346 231.682 67.0763 231.799 67.6019 231.799C68.0035 231.799 68.3503 231.74 68.6423 231.623C68.9343 231.514 69.2264 231.331 69.5184 231.076L71.0516 232.675C70.2485 233.573 69.0694 234.022 67.5143 234.022C66.5433 234.022 65.6891 233.836 64.9517 233.463C64.2143 233.098 63.6448 232.587 63.2433 231.93C62.8417 231.28 62.641 230.539 62.641 229.707C62.641 228.889 62.8381 228.156 63.2323 227.506C63.6266 226.863 64.1705 226.356 64.8641 225.983C65.5577 225.618 66.3389 225.436 67.2077 225.436C68.0327 225.436 68.7847 225.607 69.4637 225.951C70.1353 226.294 70.6683 226.787 71.0626 227.429C71.4568 228.079 71.6539 228.849 71.6539 229.74ZM67.2186 227.506C66.7733 227.506 66.4009 227.634 66.1016 227.889C65.795 228.145 65.6015 228.491 65.5212 228.929H68.927C68.8467 228.491 68.6533 228.145 68.3466 227.889C68.0473 227.634 67.6713 227.506 67.2186 227.506ZM76.0235 234.022C75.3299 234.022 74.6437 233.941 73.9647 233.781C73.293 233.62 72.7527 233.412 72.3439 233.157L73.22 231.163C73.5996 231.404 74.0486 231.591 74.567 231.722C75.0854 231.861 75.6001 231.93 76.1111 231.93C76.5857 231.93 76.9215 231.883 77.1187 231.788C77.3158 231.693 77.4144 231.554 77.4144 231.372C77.4144 231.182 77.2939 231.05 77.053 230.977C76.8193 230.897 76.4397 230.824 75.914 230.758C75.2496 230.671 74.6838 230.561 74.2166 230.43C73.7566 230.298 73.3587 230.054 73.0229 229.696C72.6797 229.338 72.5081 228.838 72.5081 228.196C72.5081 227.663 72.6688 227.188 72.99 226.772C73.3039 226.363 73.7639 226.038 74.3699 225.797C74.9832 225.556 75.7132 225.436 76.5601 225.436C77.1661 225.436 77.7648 225.498 78.3562 225.622C78.9475 225.739 79.444 225.91 79.8456 226.137L78.9694 228.119C78.2321 227.71 77.4326 227.506 76.5711 227.506C76.1111 227.506 75.7753 227.557 75.5636 227.659C75.3518 227.769 75.246 227.911 75.246 228.086C75.246 228.283 75.3628 228.418 75.5964 228.491C75.8301 228.572 76.217 228.652 76.7573 228.732C77.4436 228.835 78.013 228.951 78.4657 229.083C78.911 229.214 79.3016 229.455 79.6375 229.806C79.966 230.163 80.1303 230.66 80.1303 231.295C80.1303 231.813 79.9733 232.281 79.6594 232.697C79.3381 233.106 78.8709 233.43 78.2576 233.671C77.637 233.905 76.8923 234.022 76.0235 234.022ZM86.4054 231.503L87.1282 233.54C86.88 233.693 86.5806 233.814 86.2302 233.901C85.8725 233.982 85.4965 234.022 85.1022 234.022C84.0144 234.022 83.1821 233.755 82.6053 233.222C82.0212 232.689 81.7292 231.897 81.7292 230.846V228.053H80.5136V225.874H81.7292V223.717H84.6423V225.874H86.5368V228.053H84.6423V230.813C84.6423 231.112 84.7189 231.346 84.8722 231.514C85.0329 231.682 85.2482 231.766 85.5184 231.766C85.8542 231.766 86.1499 231.678 86.4054 231.503ZM103.917 225.567H106.468L103.511 233.879H100.697L99.1309 229.357L97.4992 233.879H94.6847L91.7278 225.567H94.4875L96.185 230.605L97.9482 225.567H100.434L102.153 230.649L103.917 225.567ZM110.904 225.436C112.284 225.436 113.335 225.75 114.058 226.378C114.788 227.006 115.153 227.969 115.153 229.269V233.879H112.437V232.806C112.021 233.617 111.203 234.022 109.984 234.022C109.341 234.022 108.783 233.909 108.308 233.682C107.841 233.456 107.487 233.153 107.246 232.773C107.005 232.386 106.884 231.948 106.884 231.459C106.884 230.671 107.187 230.061 107.793 229.63C108.392 229.192 109.323 228.973 110.586 228.973H112.24C112.189 228.097 111.601 227.659 110.477 227.659C110.075 227.659 109.67 227.721 109.261 227.845C108.852 227.977 108.505 228.156 108.221 228.382L107.235 226.4C107.695 226.093 108.257 225.856 108.921 225.688C109.579 225.52 110.239 225.436 110.904 225.436ZM110.794 232.182C111.13 232.182 111.426 232.098 111.681 231.93C111.937 231.769 112.123 231.532 112.24 231.218V230.495H110.98C110.133 230.495 109.71 230.777 109.71 231.339C109.71 231.594 109.805 231.799 109.995 231.952C110.192 232.105 110.458 232.182 110.794 232.182ZM122.972 225.567H125.743L122.162 234.219C121.738 235.241 121.227 235.96 120.628 236.376C120.022 236.785 119.285 236.99 118.416 236.99C117.978 236.99 117.537 236.92 117.091 236.782C116.646 236.65 116.284 236.471 116.007 236.245L117.025 234.208C117.186 234.361 117.38 234.478 117.606 234.558C117.839 234.646 118.073 234.69 118.307 234.69C118.584 234.69 118.811 234.635 118.986 234.526C119.168 234.416 119.322 234.237 119.446 233.989L115.887 225.567H118.876L120.913 230.649L122.972 225.567ZM135.971 231.503L136.694 233.54C136.446 233.693 136.147 233.814 135.796 233.901C135.446 233.982 135.07 234.022 134.668 234.022C133.588 234.022 132.755 233.755 132.171 233.222C131.587 232.689 131.295 231.897 131.295 230.846V228.053H130.079V225.874H131.295V223.717H134.208V225.874H136.114V228.053H134.208V230.813C134.208 231.112 134.288 231.346 134.449 231.514C134.602 231.682 134.814 231.766 135.084 231.766C135.42 231.766 135.716 231.678 135.971 231.503ZM141.984 234.022C141.093 234.022 140.29 233.836 139.574 233.463C138.859 233.098 138.3 232.587 137.899 231.93C137.49 231.28 137.285 230.539 137.285 229.707C137.285 228.889 137.49 228.156 137.899 227.506C138.3 226.849 138.855 226.338 139.563 225.973C140.279 225.615 141.086 225.436 141.984 225.436C142.882 225.436 143.688 225.615 144.404 225.973C145.119 226.338 145.678 226.845 146.079 227.495C146.474 228.145 146.671 228.882 146.671 229.707C146.671 230.539 146.474 231.28 146.079 231.93C145.678 232.587 145.119 233.098 144.404 233.463C143.688 233.836 142.882 234.022 141.984 234.022ZM141.984 231.7C142.495 231.7 142.914 231.525 143.243 231.174C143.564 230.824 143.725 230.335 143.725 229.707C143.725 229.094 143.564 228.615 143.243 228.272C142.914 227.922 142.495 227.747 141.984 227.747C141.473 227.747 141.053 227.922 140.724 228.272C140.396 228.615 140.231 229.094 140.231 229.707C140.231 230.335 140.396 230.824 140.724 231.174C141.053 231.525 141.473 231.7 141.984 231.7ZM155.509 234.022C154.808 234.022 154.121 233.941 153.45 233.781C152.778 233.62 152.238 233.412 151.829 233.157L152.694 231.163C153.074 231.404 153.526 231.591 154.052 231.722C154.57 231.861 155.085 231.93 155.596 231.93C156.063 231.93 156.399 231.883 156.604 231.788C156.801 231.693 156.899 231.554 156.899 231.372C156.899 231.182 156.779 231.05 156.538 230.977C156.297 230.897 155.917 230.824 155.399 230.758C154.735 230.671 154.169 230.561 153.702 230.43C153.234 230.298 152.833 230.054 152.497 229.696C152.161 229.338 151.993 228.838 151.993 228.196C151.993 227.663 152.15 227.188 152.464 226.772C152.785 226.363 153.249 226.038 153.855 225.797C154.461 225.556 155.191 225.436 156.045 225.436C156.644 225.436 157.239 225.498 157.83 225.622C158.429 225.739 158.925 225.91 159.32 226.137L158.444 228.119C157.713 227.71 156.918 227.506 156.056 227.506C155.596 227.506 155.26 227.557 155.049 227.659C154.83 227.769 154.72 227.911 154.72 228.086C154.72 228.283 154.837 228.418 155.07 228.491C155.311 228.572 155.702 228.652 156.242 228.732C156.929 228.835 157.494 228.951 157.94 229.083C158.392 229.214 158.783 229.455 159.112 229.806C159.447 230.163 159.615 230.66 159.615 231.295C159.615 231.813 159.455 232.281 159.133 232.697C158.82 233.106 158.352 233.43 157.732 233.671C157.118 233.905 156.377 234.022 155.509 234.022ZM165.879 231.503L166.602 233.54C166.361 233.693 166.062 233.814 165.704 233.901C165.354 233.982 164.978 234.022 164.576 234.022C163.496 234.022 162.663 233.755 162.079 233.222C161.495 232.689 161.203 231.897 161.203 230.846V228.053H159.999V225.874H161.203V223.717H164.116V225.874H166.022V228.053H164.116V230.813C164.116 231.112 164.197 231.346 164.357 231.514C164.518 231.682 164.73 231.766 164.992 231.766C165.328 231.766 165.624 231.678 165.879 231.503ZM171.268 225.436C172.647 225.436 173.699 225.75 174.422 226.378C175.152 227.006 175.517 227.969 175.517 229.269V233.879H172.801V232.806C172.377 233.617 171.56 234.022 170.348 234.022C169.705 234.022 169.147 233.909 168.672 233.682C168.205 233.456 167.851 233.153 167.61 232.773C167.369 232.386 167.248 231.948 167.248 231.459C167.248 230.671 167.551 230.061 168.157 229.63C168.756 229.192 169.683 228.973 170.939 228.973H172.604C172.553 228.097 171.965 227.659 170.84 227.659C170.439 227.659 170.034 227.721 169.625 227.845C169.216 227.977 168.869 228.156 168.584 228.382L167.599 226.4C168.059 226.093 168.617 225.856 169.274 225.688C169.939 225.52 170.603 225.436 171.268 225.436ZM171.158 232.182C171.494 232.182 171.79 232.098 172.045 231.93C172.301 231.769 172.487 231.532 172.604 231.218V230.495H171.344C170.497 230.495 170.074 230.777 170.074 231.339C170.074 231.594 170.169 231.799 170.359 231.952C170.556 232.105 170.822 232.182 171.158 232.182ZM183.336 225.567H186.107L182.515 234.219C182.098 235.241 181.587 235.96 180.981 236.376C180.383 236.785 179.649 236.99 178.78 236.99C178.342 236.99 177.9 236.92 177.455 236.782C177.01 236.65 176.648 236.471 176.371 236.245L177.378 234.208C177.546 234.361 177.743 234.478 177.97 234.558C178.203 234.646 178.437 234.69 178.671 234.69C178.948 234.69 179.174 234.635 179.35 234.526C179.532 234.416 179.686 234.237 179.81 233.989L176.25 225.567H179.24L181.277 230.649L183.336 225.567ZM195.492 234.022C194.601 234.022 193.798 233.836 193.083 233.463C192.367 233.098 191.809 232.587 191.407 231.93C190.998 231.28 190.794 230.539 190.794 229.707C190.794 228.889 190.998 228.156 191.407 227.506C191.809 226.849 192.364 226.338 193.072 225.973C193.787 225.615 194.594 225.436 195.492 225.436C196.39 225.436 197.197 225.615 197.912 225.973C198.628 226.338 199.186 226.845 199.588 227.495C199.982 228.145 200.179 228.882 200.179 229.707C200.179 230.539 199.982 231.28 199.588 231.93C199.186 232.587 198.628 233.098 197.912 233.463C197.197 233.836 196.39 234.022 195.492 234.022ZM195.492 231.7C196.003 231.7 196.423 231.525 196.751 231.174C197.073 230.824 197.233 230.335 197.233 229.707C197.233 229.094 197.073 228.615 196.751 228.272C196.423 227.922 196.003 227.747 195.492 227.747C194.981 227.747 194.561 227.922 194.233 228.272C193.904 228.615 193.74 229.094 193.74 229.707C193.74 230.335 193.904 230.824 194.233 231.174C194.561 231.525 194.981 231.7 195.492 231.7ZM206.947 225.436C207.977 225.436 208.805 225.743 209.433 226.356C210.061 226.969 210.375 227.893 210.375 229.127V233.879H207.462V229.608C207.462 228.469 207.009 227.9 206.104 227.9C205.6 227.9 205.199 228.064 204.899 228.393C204.593 228.721 204.439 229.21 204.439 229.86V233.879H201.526V225.567H204.308V226.476C204.636 226.14 205.023 225.881 205.469 225.699C205.921 225.524 206.414 225.436 206.947 225.436ZM221.677 231.503L222.399 233.54C222.151 233.693 221.852 233.814 221.501 233.901C221.151 233.982 220.775 234.022 220.373 234.022C219.293 234.022 218.461 233.755 217.877 233.222C217.292 232.689 217 231.897 217 230.846V228.053H215.785V225.874H217V223.717H219.914V225.874H221.819V228.053H219.914V230.813C219.914 231.112 219.994 231.346 220.154 231.514C220.308 231.682 220.519 231.766 220.79 231.766C221.125 231.766 221.421 231.678 221.677 231.503ZM227.689 234.022C226.798 234.022 225.995 233.836 225.28 233.463C224.564 233.098 224.006 232.587 223.604 231.93C223.195 231.28 222.991 230.539 222.991 229.707C222.991 228.889 223.195 228.156 223.604 227.506C224.006 226.849 224.561 226.338 225.269 225.973C225.984 225.615 226.791 225.436 227.689 225.436C228.587 225.436 229.394 225.615 230.109 225.973C230.825 226.338 231.383 226.845 231.785 227.495C232.179 228.145 232.376 228.882 232.376 229.707C232.376 230.539 232.179 231.28 231.785 231.93C231.383 232.587 230.825 233.098 230.109 233.463C229.394 233.836 228.587 234.022 227.689 234.022ZM227.689 231.7C228.2 231.7 228.62 231.525 228.948 231.174C229.27 230.824 229.43 230.335 229.43 229.707C229.43 229.094 229.27 228.615 228.948 228.272C228.62 227.922 228.2 227.747 227.689 227.747C227.178 227.747 226.758 227.922 226.43 228.272C226.101 228.615 225.937 229.094 225.937 229.707C225.937 230.335 226.101 230.824 226.43 231.174C226.758 231.525 227.178 231.7 227.689 231.7ZM238.958 225.436C239.71 225.436 240.396 225.611 241.017 225.962C241.637 226.312 242.13 226.812 242.495 227.462C242.853 228.112 243.032 228.867 243.032 229.729C243.032 230.583 242.853 231.335 242.495 231.985C242.13 232.635 241.637 233.138 241.017 233.496C240.396 233.847 239.71 234.022 238.958 234.022C237.987 234.022 237.213 233.73 236.636 233.146V236.858H233.723V225.567H236.505V226.4C237.045 225.757 237.863 225.436 238.958 225.436ZM238.345 231.7C238.856 231.7 239.276 231.525 239.604 231.174C239.925 230.824 240.086 230.342 240.086 229.729C240.086 229.116 239.925 228.63 239.604 228.272C239.276 227.922 238.856 227.747 238.345 227.747C237.834 227.747 237.414 227.922 237.085 228.272C236.757 228.63 236.592 229.116 236.592 229.729C236.592 230.342 236.757 230.824 237.085 231.174C237.414 231.525 237.834 231.7 238.345 231.7ZM244.598 229.97L244.028 223.147H247.5L246.909 229.97H244.598ZM245.759 234.022C245.248 234.022 244.832 233.865 244.51 233.551C244.182 233.237 244.017 232.857 244.017 232.412C244.017 231.952 244.182 231.572 244.51 231.273C244.832 230.981 245.248 230.835 245.759 230.835C246.27 230.835 246.69 230.981 247.018 231.273C247.339 231.572 247.5 231.952 247.5 232.412C247.5 232.857 247.336 233.237 247.007 233.551C246.679 233.865 246.263 234.022 245.759 234.022Z" stroke="white" stroke-width="2" mask="url(#path-4-outside-2)"/>
</g>
</g>
</g>
<defs>
<filter id="filter0_d" x="14.7506" y="157.181" width="270.249" height="64.3203" filterUnits="userSpaceOnUse" color-interpolation-filters="sRGB">
<feFlood flood-opacity="0" result="BackgroundImageFix"/>
<feColorMatrix in="SourceAlpha" type="matrix" values="0 0 0 0 0 0 0 0 0 0 0 0 0 0 0 0 0 0 127 0"/>
<feOffset dy="4"/>
<feGaussianBlur stdDeviation="2"/>
<feColorMatrix type="matrix" values="0 0 0 0 0 0 0 0 0 0 0 0 0 0 0 0 0 0 0.25 0"/>
<feBlend mode="normal" in2="BackgroundImageFix" result="effect1_dropShadow"/>
<feBlend mode="normal" in="SourceGraphic" in2="effect1_dropShadow" result="shape"/>
</filter>
<filter id="filter1_d" x="107.415" y="63.0104" width="85.1703" height="85.1703" filterUnits="userSpaceOnUse" color-interpolation-filters="sRGB">
<feFlood flood-opacity="0" result="BackgroundImageFix"/>
<feColorMatrix in="SourceAlpha" type="matrix" values="0 0 0 0 0 0 0 0 0 0 0 0 0 0 0 0 0 0 127 0"/>
<feOffset dy="4"/>
<feGaussianBlur stdDeviation="2"/>
<feColorMatrix type="matrix" values="0 0 0 0 0 0 0 0 0 0 0 0 0 0 0 0 0 0 0.25 0"/>
<feBlend mode="normal" in2="BackgroundImageFix" result="effect1_dropShadow"/>
<feBlend mode="normal" in="SourceGraphic" in2="effect1_dropShadow" result="shape"/>
</filter>
<filter id="filter2_d" x="47.5" y="221.501" width="205.09" height="24.4887" filterUnits="userSpaceOnUse" color-interpolation-filters="sRGB">
<feFlood flood-opacity="0" result="BackgroundImageFix"/>
<feColorMatrix in="SourceAlpha" type="matrix" values="0 0 0 0 0 0 0 0 0 0 0 0 0 0 0 0 0 0 127 0"/>
<feOffset dy="4"/>
<feGaussianBlur stdDeviation="2"/>
<feColorMatrix type="matrix" values="0 0 0 0 0 0 0 0 0 0 0 0 0 0 0 0 0 0 0.25 0"/>
<feBlend mode="normal" in2="BackgroundImageFix" result="effect1_dropShadow"/>
<feBlend mode="normal" in="SourceGraphic" in2="effect1_dropShadow" result="shape"/>
</filter>
<linearGradient id="paint0_linear" x1="111.431" y1="63.014" x2="181.371" y2="95.6276" gradientUnits="userSpaceOnUse">
<stop stop-color="#01648B"/>
<stop offset="1" stop-color="#5BD0A4"/>
</linearGradient>
<linearGradient id="paint1_linear" x1="119.791" y1="81.8291" x2="161.584" y2="101.318" gradientUnits="userSpaceOnUse">
<stop stop-color="#01648B"/>
<stop offset="1" stop-color="#5BD0A4"/>
</linearGradient>
</defs>
</svg>
