<svg data-v-423bf9ae="" xmlns="http://www.w3.org/2000/svg" viewBox="0 0 398 90" class="iconLeftSlogan"><!----><!----><!----><g data-v-423bf9ae="" id="88258e14-8a81-4208-8d1b-0e78f09ef2b9" fill="#000000" transform="matrix(4.576658825829835,0,0,4.576658825829835,108.67277154319527,-14.46224204402148)"><path d="M4.42 13.75L4.42 13.75Q3.23 13.75 2.11 13.45L2.11 13.45L2.11 13.45Q0.99 13.16 0.29 12.67L0.29 12.67L1.20 10.63L1.20 10.63Q1.86 11.06 2.73 11.33L2.73 11.33L2.73 11.33Q3.60 11.59 4.44 11.59L4.44 11.59L4.44 11.59Q6.03 11.59 6.03 10.79L6.03 10.79L6.03 10.79Q6.03 10.37 5.58 10.17L5.58 10.17L5.58 10.17Q5.12 9.97 4.12 9.74L4.12 9.74L4.12 9.74Q3.01 9.51 2.27 9.23L2.27 9.23L2.27 9.23Q1.53 8.96 0.99 8.36L0.99 8.36L0.99 8.36Q0.46 7.76 0.46 6.73L0.46 6.73L0.46 6.73Q0.46 5.84 0.95 5.12L0.95 5.12L0.95 5.12Q1.44 4.40 2.42 3.98L2.42 3.98L2.42 3.98Q3.39 3.56 4.80 3.56L4.80 3.56L4.80 3.56Q5.77 3.56 6.71 3.77L6.71 3.77L6.71 3.77Q7.64 3.99 8.36 4.41L8.36 4.41L7.50 6.47L7.50 6.47Q6.10 5.71 4.79 5.71L4.79 5.71L4.79 5.71Q3.96 5.71 3.58 5.96L3.58 5.96L3.58 5.96Q3.21 6.20 3.21 6.59L3.21 6.59L3.21 6.59Q3.21 6.99 3.65 7.18L3.65 7.18L3.65 7.18Q4.10 7.38 5.10 7.59L5.10 7.59L5.10 7.59Q6.22 7.83 6.95 8.10L6.95 8.10L6.95 8.10Q7.69 8.37 8.22 8.97L8.22 8.97L8.22 8.97Q8.76 9.56 8.76 10.58L8.76 10.58L8.76 10.58Q8.76 11.47 8.27 12.18L8.27 12.18L8.27 12.18Q7.78 12.89 6.80 13.32L6.80 13.32L6.80 13.32Q5.82 13.75 4.42 13.75L4.42 13.75ZM14.49 11.38L15.15 13.24L15.15 13.24Q14.81 13.45 14.33 13.57L14.33 13.57L14.33 13.57Q13.85 13.68 13.30 13.68L13.30 13.68L13.30 13.68Q11.82 13.68 11.02 12.95L11.02 12.95L11.02 12.95Q10.22 12.22 10.22 10.78L10.22 10.78L10.22 8.23L9.11 8.23L9.11 6.24L10.22 6.24L10.22 4.27L12.88 4.27L12.88 6.24L14.62 6.24L14.62 8.23L12.88 8.23L12.88 10.75L12.88 10.75Q12.88 11.16 13.10 11.39L13.10 11.39L13.10 11.39Q13.31 11.62 13.68 11.62L13.68 11.62L13.68 11.62Q14.14 11.62 14.49 11.38L14.49 11.38ZM19.98 13.68L19.98 13.68Q18.76 13.68 17.78 13.17L17.78 13.17L17.78 13.17Q16.80 12.67 16.25 11.77L16.25 11.77L16.25 11.77Q15.69 10.88 15.69 9.74L15.69 9.74L15.69 9.74Q15.69 8.62 16.25 7.73L16.25 7.73L16.25 7.73Q16.80 6.83 17.77 6.33L17.77 6.33L17.77 6.33Q18.75 5.84 19.98 5.84L19.98 5.84L19.98 5.84Q21.21 5.84 22.19 6.33L22.19 6.33L22.19 6.33Q23.17 6.83 23.72 7.72L23.72 7.72L23.72 7.72Q24.26 8.61 24.26 9.74L24.26 9.74L24.26 9.74Q24.26 10.88 23.72 11.77L23.72 11.77L23.72 11.77Q23.17 12.67 22.19 13.17L22.19 13.17L22.19 13.17Q21.21 13.68 19.98 13.68L19.98 13.68ZM19.98 11.56L19.98 11.56Q20.68 11.56 21.13 11.08L21.13 11.08L21.13 11.08Q21.57 10.60 21.57 9.74L21.57 9.74L21.57 9.74Q21.57 8.90 21.13 8.43L21.13 8.43L21.13 8.43Q20.68 7.95 19.98 7.95L19.98 7.95L19.98 7.95Q19.28 7.95 18.83 8.43L18.83 8.43L18.83 8.43Q18.38 8.90 18.38 9.74L18.38 9.74L18.38 9.74Q18.38 10.60 18.83 11.08L18.83 11.08L18.83 11.08Q19.28 11.56 19.98 11.56L19.98 11.56ZM29.37 13.68L29.37 13.68Q28.11 13.68 27.12 13.17L27.12 13.17L27.12 13.17Q26.12 12.67 25.57 11.77L25.57 11.77L25.57 11.77Q25.02 10.88 25.02 9.74L25.02 9.74L25.02 9.74Q25.02 8.61 25.57 7.72L25.57 7.72L25.57 7.72Q26.12 6.83 27.12 6.33L27.12 6.33L27.12 6.33Q28.11 5.84 29.37 5.84L29.37 5.84L29.37 5.84Q30.66 5.84 31.60 6.39L31.60 6.39L31.60 6.39Q32.54 6.94 32.93 7.92L32.93 7.92L30.87 8.97L30.87 8.97Q30.35 7.95 29.36 7.95L29.36 7.95L29.36 7.95Q28.64 7.95 28.18 8.43L28.18 8.43L28.18 8.43Q27.71 8.90 27.71 9.74L27.71 9.74L27.71 9.74Q27.71 10.60 28.18 11.08L28.18 11.08L28.18 11.08Q28.64 11.56 29.36 11.56L29.36 11.56L29.36 11.56Q30.35 11.56 30.87 10.54L30.87 10.54L32.93 11.59L32.93 11.59Q32.54 12.57 31.60 13.13L31.60 13.13L31.60 13.13Q30.66 13.68 29.37 13.68L29.37 13.68ZM39.51 13.55L37.38 10.89L36.60 11.69L36.60 13.55L33.94 13.55L33.94 3.16L36.60 3.16L36.60 8.61L39.31 5.96L42.46 5.96L39.31 9.21L42.73 13.55L39.51 13.55ZM48.19 13.75L48.19 13.75Q46.00 13.75 44.79 12.56L44.79 12.56L44.79 12.56Q43.58 11.37 43.58 9.18L43.58 9.18L43.58 3.75L46.35 3.75L46.35 9.10L46.35 9.10Q46.35 11.45 48.22 11.45L48.22 11.45L48.22 11.45Q50.06 11.45 50.06 9.10L50.06 9.10L50.06 3.75L52.79 3.75L52.79 9.18L52.79 9.18Q52.79 11.37 51.58 12.56L51.58 12.56L51.58 12.56Q50.37 13.75 48.19 13.75L48.19 13.75ZM59.32 5.84L59.32 5.84Q60.35 5.84 61.20 6.32L61.20 6.32L61.20 6.32Q62.05 6.80 62.55 7.69L62.55 7.69L62.55 7.69Q63.04 8.58 63.04 9.76L63.04 9.76L63.04 9.76Q63.04 10.93 62.55 11.82L62.55 11.82L62.55 11.82Q62.05 12.71 61.20 13.20L61.20 13.20L61.20 13.20Q60.35 13.68 59.32 13.68L59.32 13.68L59.32 13.68Q57.99 13.68 57.20 12.88L57.20 12.88L57.20 16.27L54.54 16.27L54.54 5.96L57.08 5.96L57.08 6.72L57.08 6.72Q57.82 5.84 59.32 5.84L59.32 5.84ZM58.76 11.56L58.76 11.56Q59.46 11.56 59.91 11.08L59.91 11.08L59.91 11.08Q60.35 10.60 60.35 9.76L60.35 9.76L60.35 9.76Q60.35 8.92 59.91 8.43L59.91 8.43L59.91 8.43Q59.46 7.95 58.76 7.95L58.76 7.95L58.76 7.95Q58.06 7.95 57.61 8.43L57.61 8.43L57.61 8.43Q57.16 8.92 57.16 9.76L57.16 9.76L57.16 9.76Q57.16 10.60 57.61 11.08L57.61 11.08L57.61 11.08Q58.06 11.56 58.76 11.56L58.76 11.56Z"></path></g><defs data-v-423bf9ae=""><linearGradient data-v-423bf9ae="" gradientTransform="rotate(25)" id="cd0f7a8a-c40e-45b2-a625-cd58f3f5bd56" x1="0%" y1="0%" x2="100%" y2="0%"><stop data-v-423bf9ae="" offset="0%" style="stop-color: rgb(65, 226, 150); stop-opacity: 1;"></stop><stop data-v-423bf9ae="" offset="100%" style="stop-color: rgb(0, 196, 238); stop-opacity: 1;"></stop></linearGradient></defs><g data-v-423bf9ae="" id="6944a7c2-1307-4408-be38-7368fd3d9d4c" transform="matrix(2.8125,0,0,2.8125,0,1.0290013551712036)" stroke="none" fill="url(#cd0f7a8a-c40e-45b2-a625-cd58f3f5bd56)"><path d="M0 31.984h32v-32H0v32zm2-30h28v28H2v-28z"></path><path d="M6.439 16.831h8.959l-4.48-7.741zM16.602 13.331h8.959L21.082 5.59zM6.439 26.41h8.959l-4.48-7.741zM16.602 22.91h8.959l-4.479-7.741z"></path></g><!----><g data-v-423bf9ae="" id="054a517d-afa6-4dd5-a687-fc7fc055832c" fill="#000000" transform="matrix(1.2902857250745217,0,0,1.2902857250745217,108.90326000273373,55.922695726383196)"><path d="M5.63 5.84L5.63 5.84Q6.66 5.84 7.51 6.31L7.51 6.31L7.51 6.31Q8.36 6.79 8.86 7.68L8.86 7.68L8.86 7.68Q9.35 8.57 9.35 9.74L9.35 9.74L9.35 9.74Q9.35 10.92 8.86 11.82L8.86 11.82L8.86 11.82Q8.36 12.71 7.51 13.20L7.51 13.20L7.51 13.20Q6.66 13.68 5.63 13.68L5.63 13.68L5.63 13.68Q4.13 13.68 3.39 12.80L3.39 12.80L3.39 13.55L0.85 13.55L0.85 3.16L3.51 3.16L3.51 6.62L3.51 6.62Q4.28 5.84 5.63 5.84L5.63 5.84ZM5.07 11.56L5.07 11.56Q5.77 11.56 6.22 11.08L6.22 11.08L6.22 11.08Q6.66 10.60 6.66 9.74L6.66 9.74L6.66 9.74Q6.66 8.90 6.22 8.43L6.22 8.43L6.22 8.43Q5.77 7.95 5.07 7.95L5.07 7.95L5.07 7.95Q4.37 7.95 3.92 8.43L3.92 8.43L3.92 8.43Q3.47 8.90 3.47 9.74L3.47 9.74L3.47 9.74Q3.47 10.60 3.92 11.08L3.92 11.08L3.92 11.08Q4.37 11.56 5.07 11.56L5.07 11.56ZM18.34 9.77L18.34 9.77Q18.34 9.80 18.30 10.43L18.30 10.43L12.78 10.43L12.78 10.43Q12.95 11.02 13.43 11.33L13.43 11.33L13.43 11.33Q13.92 11.65 14.64 11.65L14.64 11.65L14.64 11.65Q15.19 11.65 15.59 11.49L15.59 11.49L15.59 11.49Q15.99 11.34 16.39 10.99L16.39 10.99L17.79 12.45L17.79 12.45Q16.69 13.68 14.56 13.68L14.56 13.68L14.56 13.68Q13.23 13.68 12.22 13.17L12.22 13.17L12.22 13.17Q11.21 12.67 10.66 11.77L10.66 11.77L10.66 11.77Q10.11 10.88 10.11 9.74L10.11 9.74L10.11 9.74Q10.11 8.62 10.65 7.73L10.65 7.73L10.65 7.73Q11.19 6.85 12.14 6.34L12.14 6.34L12.14 6.34Q13.09 5.84 14.28 5.84L14.28 5.84L14.28 5.84Q15.41 5.84 16.34 6.31L16.34 6.31L16.34 6.31Q17.26 6.78 17.80 7.66L17.80 7.66L17.80 7.66Q18.34 8.55 18.34 9.77L18.34 9.77ZM14.29 7.73L14.29 7.73Q13.68 7.73 13.27 8.08L13.27 8.08L13.27 8.08Q12.85 8.43 12.74 9.03L12.74 9.03L15.85 9.03L15.85 9.03Q15.74 8.43 15.32 8.08L15.32 8.08L15.32 8.08Q14.91 7.73 14.29 7.73L14.29 7.73ZM22.33 13.68L22.33 13.68Q21.38 13.68 20.45 13.46L20.45 13.46L20.45 13.46Q19.53 13.24 18.97 12.89L18.97 12.89L19.77 11.07L19.77 11.07Q20.29 11.40 21 11.58L21 11.58L21 11.58Q21.71 11.77 22.41 11.77L22.41 11.77L22.41 11.77Q23.06 11.77 23.33 11.64L23.33 11.64L23.33 11.64Q23.60 11.51 23.60 11.26L23.60 11.26L23.60 11.26Q23.60 11.00 23.27 10.90L23.27 10.90L23.27 10.90Q22.95 10.79 22.23 10.70L22.23 10.70L22.23 10.70Q21.32 10.58 20.68 10.40L20.68 10.40L20.68 10.40Q20.05 10.22 19.59 9.73L19.59 9.73L19.59 9.73Q19.12 9.24 19.12 8.36L19.12 8.36L19.12 8.36Q19.12 7.63 19.56 7.06L19.56 7.06L19.56 7.06Q19.99 6.50 20.82 6.17L20.82 6.17L20.82 6.17Q21.66 5.84 22.82 5.84L22.82 5.84L22.82 5.84Q23.65 5.84 24.46 6.01L24.46 6.01L24.46 6.01Q25.27 6.17 25.82 6.48L25.82 6.48L25.02 8.29L25.02 8.29Q24.01 7.73 22.83 7.73L22.83 7.73L22.83 7.73Q22.20 7.73 21.91 7.87L21.91 7.87L21.91 7.87Q21.62 8.02 21.62 8.26L21.62 8.26L21.62 8.26Q21.62 8.53 21.94 8.63L21.94 8.63L21.94 8.63Q22.26 8.74 23.00 8.85L23.00 8.85L23.00 8.85Q23.94 8.99 24.56 9.17L24.56 9.17L24.56 9.17Q25.17 9.35 25.63 9.83L25.63 9.83L25.63 9.83Q26.08 10.32 26.08 11.19L26.08 11.19L26.08 11.19Q26.08 11.90 25.65 12.47L25.65 12.47L25.65 12.47Q25.21 13.03 24.37 13.36L24.37 13.36L24.37 13.36Q23.52 13.68 22.33 13.68L22.33 13.68ZM31.81 11.38L32.47 13.24L32.47 13.24Q32.13 13.45 31.65 13.57L31.65 13.57L31.65 13.57Q31.16 13.68 30.62 13.68L30.62 13.68L30.62 13.68Q29.13 13.68 28.34 12.95L28.34 12.95L28.34 12.95Q27.54 12.22 27.54 10.78L27.54 10.78L27.54 8.23L26.43 8.23L26.43 6.24L27.54 6.24L27.54 4.27L30.20 4.27L30.20 6.24L31.93 6.24L31.93 8.23L30.20 8.23L30.20 10.75L30.20 10.75Q30.20 11.16 30.41 11.39L30.41 11.39L30.41 11.39Q30.63 11.62 31.00 11.62L31.00 11.62L31.00 11.62Q31.46 11.62 31.81 11.38L31.81 11.38ZM47.80 5.96L50.13 5.96L47.43 13.55L44.86 13.55L43.43 9.42L41.94 13.55L39.37 13.55L36.67 5.96L39.19 5.96L40.74 10.56L42.35 5.96L44.62 5.96L46.19 10.60L47.80 5.96ZM54.18 5.84L54.18 5.84Q56.07 5.84 57.06 6.70L57.06 6.70L57.06 6.70Q58.06 7.56 58.06 9.34L58.06 9.34L58.06 13.55L55.58 13.55L55.58 12.57L55.58 12.57Q55.01 13.68 53.34 13.68L53.34 13.68L53.34 13.68Q52.46 13.68 51.81 13.37L51.81 13.37L51.81 13.37Q51.17 13.06 50.84 12.54L50.84 12.54L50.84 12.54Q50.51 12.01 50.51 11.34L50.51 11.34L50.51 11.34Q50.51 10.26 51.34 9.67L51.34 9.67L51.34 9.67Q52.16 9.07 53.89 9.07L53.89 9.07L55.40 9.07L55.40 9.07Q55.33 7.87 53.79 7.87L53.79 7.87L53.79 7.87Q53.24 7.87 52.68 8.04L52.68 8.04L52.68 8.04Q52.12 8.22 51.73 8.53L51.73 8.53L50.83 6.72L50.83 6.72Q51.46 6.30 52.37 6.07L52.37 6.07L52.37 6.07Q53.27 5.84 54.18 5.84L54.18 5.84ZM54.08 12.00L54.08 12.00Q54.54 12.00 54.89 11.77L54.89 11.77L54.89 11.77Q55.24 11.55 55.40 11.12L55.40 11.12L55.40 10.46L54.25 10.46L54.25 10.46Q53.09 10.46 53.09 11.23L53.09 11.23L53.09 11.23Q53.09 11.58 53.35 11.79L53.35 11.79L53.35 11.79Q53.62 12.00 54.08 12.00L54.08 12.00ZM65.20 5.96L67.73 5.96L64.46 13.86L64.46 13.86Q63.88 15.26 63.06 15.83L63.06 15.83L63.06 15.83Q62.23 16.39 61.04 16.39L61.04 16.39L61.04 16.39Q60.44 16.39 59.83 16.20L59.83 16.20L59.83 16.20Q59.22 16.02 58.84 15.71L58.84 15.71L59.77 13.85L59.77 13.85Q59.99 14.06 60.30 14.17L60.30 14.17L60.30 14.17Q60.62 14.29 60.94 14.29L60.94 14.29L60.94 14.29Q61.32 14.29 61.56 14.14L61.56 14.14L61.56 14.14Q61.81 13.99 61.98 13.65L61.98 13.65L58.73 5.96L61.46 5.96L63.32 10.60L65.20 5.96ZM77.07 11.38L77.73 13.24L77.73 13.24Q77.39 13.45 76.91 13.57L76.91 13.57L76.91 13.57Q76.43 13.68 75.88 13.68L75.88 13.68L75.88 13.68Q74.40 13.68 73.60 12.95L73.60 12.95L73.60 12.95Q72.80 12.22 72.80 10.78L72.80 10.78L72.80 8.23L71.69 8.23L71.69 6.24L72.80 6.24L72.80 4.27L75.46 4.27L75.46 6.24L77.20 6.24L77.20 8.23L75.46 8.23L75.46 10.75L75.46 10.75Q75.46 11.16 75.68 11.39L75.68 11.39L75.68 11.39Q75.89 11.62 76.26 11.62L76.26 11.62L76.26 11.62Q76.72 11.62 77.07 11.38L77.07 11.38ZM82.56 13.68L82.56 13.68Q81.34 13.68 80.36 13.17L80.36 13.17L80.36 13.17Q79.38 12.67 78.83 11.77L78.83 11.77L78.83 11.77Q78.27 10.88 78.27 9.74L78.27 9.74L78.27 9.74Q78.27 8.62 78.83 7.73L78.83 7.73L78.83 7.73Q79.38 6.83 80.35 6.33L80.35 6.33L80.35 6.33Q81.33 5.84 82.56 5.84L82.56 5.84L82.56 5.84Q83.79 5.84 84.77 6.33L84.77 6.33L84.77 6.33Q85.75 6.83 86.30 7.72L86.30 7.72L86.30 7.72Q86.84 8.61 86.84 9.74L86.84 9.74L86.84 9.74Q86.84 10.88 86.30 11.77L86.30 11.77L86.30 11.77Q85.75 12.67 84.77 13.17L84.77 13.17L84.77 13.17Q83.79 13.68 82.56 13.68L82.56 13.68ZM82.56 11.56L82.56 11.56Q83.26 11.56 83.71 11.08L83.71 11.08L83.71 11.08Q84.15 10.60 84.15 9.74L84.15 9.74L84.15 9.74Q84.15 8.90 83.71 8.43L83.71 8.43L83.71 8.43Q83.26 7.95 82.56 7.95L82.56 7.95L82.56 7.95Q81.86 7.95 81.41 8.43L81.41 8.43L81.41 8.43Q80.96 8.90 80.96 9.74L80.96 9.74L80.96 9.74Q80.96 10.60 81.41 11.08L81.41 11.08L81.41 11.08Q81.86 11.56 82.56 11.56L82.56 11.56ZM94.91 13.68L94.91 13.68Q93.95 13.68 93.03 13.46L93.03 13.46L93.03 13.46Q92.11 13.24 91.55 12.89L91.55 12.89L92.34 11.07L92.34 11.07Q92.86 11.40 93.58 11.58L93.58 11.58L93.58 11.58Q94.29 11.77 94.99 11.77L94.99 11.77L94.99 11.77Q95.63 11.77 95.91 11.64L95.91 11.64L95.91 11.64Q96.18 11.51 96.18 11.26L96.18 11.26L96.18 11.26Q96.18 11.00 95.85 10.90L95.85 10.90L95.85 10.90Q95.52 10.79 94.81 10.70L94.81 10.70L94.81 10.70Q93.90 10.58 93.26 10.40L93.26 10.40L93.26 10.40Q92.62 10.22 92.16 9.73L92.16 9.73L92.16 9.73Q91.70 9.24 91.70 8.36L91.70 8.36L91.70 8.36Q91.70 7.63 92.13 7.06L92.13 7.06L92.13 7.06Q92.57 6.50 93.40 6.17L93.40 6.17L93.40 6.17Q94.23 5.84 95.40 5.84L95.40 5.84L95.40 5.84Q96.22 5.84 97.03 6.01L97.03 6.01L97.03 6.01Q97.85 6.17 98.39 6.48L98.39 6.48L97.59 8.29L97.59 8.29Q96.59 7.73 95.41 7.73L95.41 7.73L95.41 7.73Q94.78 7.73 94.49 7.87L94.49 7.87L94.49 7.87Q94.19 8.02 94.19 8.26L94.19 8.26L94.19 8.26Q94.19 8.53 94.51 8.63L94.51 8.63L94.51 8.63Q94.84 8.74 95.58 8.85L95.58 8.85L95.58 8.85Q96.52 8.99 97.13 9.17L97.13 9.17L97.13 9.17Q97.75 9.35 98.20 9.83L98.20 9.83L98.20 9.83Q98.66 10.32 98.66 11.19L98.66 11.19L98.66 11.19Q98.66 11.90 98.22 12.47L98.22 12.47L98.22 12.47Q97.79 13.03 96.94 13.36L96.94 13.36L96.94 13.36Q96.10 13.68 94.91 13.68L94.91 13.68ZM104.38 11.38L105.04 13.24L105.04 13.24Q104.71 13.45 104.22 13.57L104.22 13.57L104.22 13.57Q103.74 13.68 103.19 13.68L103.19 13.68L103.19 13.68Q101.71 13.68 100.91 12.95L100.91 12.95L100.91 12.95Q100.11 12.22 100.11 10.78L100.11 10.78L100.11 8.23L99.01 8.23L99.01 6.24L100.11 6.24L100.11 4.27L102.77 4.27L102.77 6.24L104.51 6.24L104.51 8.23L102.77 8.23L102.77 10.75L102.77 10.75Q102.77 11.16 102.99 11.39L102.99 11.39L102.99 11.39Q103.21 11.62 103.57 11.62L103.57 11.62L103.57 11.62Q104.03 11.62 104.38 11.38L104.38 11.38ZM109.30 5.84L109.30 5.84Q111.19 5.84 112.18 6.70L112.18 6.70L112.18 6.70Q113.18 7.56 113.18 9.34L113.18 9.34L113.18 13.55L110.70 13.55L110.70 12.57L110.70 12.57Q110.12 13.68 108.46 13.68L108.46 13.68L108.46 13.68Q107.58 13.68 106.93 13.37L106.93 13.37L106.93 13.37Q106.29 13.06 105.96 12.54L105.96 12.54L105.96 12.54Q105.63 12.01 105.63 11.34L105.63 11.34L105.63 11.34Q105.63 10.26 106.46 9.67L106.46 9.67L106.46 9.67Q107.28 9.07 109.00 9.07L109.00 9.07L110.52 9.07L110.52 9.07Q110.45 7.87 108.91 7.87L108.91 7.87L108.91 7.87Q108.36 7.87 107.80 8.04L107.80 8.04L107.80 8.04Q107.24 8.22 106.85 8.53L106.85 8.53L105.95 6.72L105.95 6.72Q106.58 6.30 107.48 6.07L107.48 6.07L107.48 6.07Q108.39 5.84 109.30 5.84L109.30 5.84ZM109.20 12.00L109.20 12.00Q109.66 12.00 110.01 11.77L110.01 11.77L110.01 11.77Q110.36 11.55 110.52 11.12L110.52 11.12L110.52 10.46L109.37 10.46L109.37 10.46Q108.21 10.46 108.21 11.23L108.21 11.23L108.21 11.23Q108.21 11.58 108.47 11.79L108.47 11.79L108.47 11.79Q108.74 12.00 109.20 12.00L109.20 12.00ZM120.32 5.96L122.85 5.96L119.57 13.86L119.57 13.86Q119.00 15.26 118.17 15.83L118.17 15.83L118.17 15.83Q117.35 16.39 116.16 16.39L116.16 16.39L116.16 16.39Q115.56 16.39 114.95 16.20L114.95 16.20L114.95 16.20Q114.34 16.02 113.96 15.71L113.96 15.71L114.88 13.85L114.88 13.85Q115.11 14.06 115.42 14.17L115.42 14.17L115.42 14.17Q115.74 14.29 116.06 14.29L116.06 14.29L116.06 14.29Q116.44 14.29 116.68 14.14L116.68 14.14L116.68 14.14Q116.93 13.99 117.10 13.65L117.10 13.65L113.85 5.96L116.58 5.96L118.44 10.60L120.32 5.96ZM131.42 13.68L131.42 13.68Q130.20 13.68 129.22 13.17L129.22 13.17L129.22 13.17Q128.24 12.67 127.69 11.77L127.69 11.77L127.69 11.77Q127.13 10.88 127.13 9.74L127.13 9.74L127.13 9.74Q127.13 8.62 127.69 7.73L127.69 7.73L127.69 7.73Q128.24 6.83 129.21 6.33L129.21 6.33L129.21 6.33Q130.19 5.84 131.42 5.84L131.42 5.84L131.42 5.84Q132.65 5.84 133.63 6.33L133.63 6.33L133.63 6.33Q134.61 6.83 135.16 7.72L135.16 7.72L135.16 7.72Q135.70 8.61 135.70 9.74L135.70 9.74L135.70 9.74Q135.70 10.88 135.16 11.77L135.16 11.77L135.16 11.77Q134.61 12.67 133.63 13.17L133.63 13.17L133.63 13.17Q132.65 13.68 131.42 13.68L131.42 13.68ZM131.42 11.56L131.42 11.56Q132.12 11.56 132.57 11.08L132.57 11.08L132.57 11.08Q133.01 10.60 133.01 9.74L133.01 9.74L133.01 9.74Q133.01 8.90 132.57 8.43L132.57 8.43L132.57 8.43Q132.12 7.95 131.42 7.95L131.42 7.95L131.42 7.95Q130.72 7.95 130.27 8.43L130.27 8.43L130.27 8.43Q129.82 8.90 129.82 9.74L129.82 9.74L129.82 9.74Q129.82 10.60 130.27 11.08L130.27 11.08L130.27 11.08Q130.72 11.56 131.42 11.56L131.42 11.56ZM141.88 5.84L141.88 5.84Q143.29 5.84 144.15 6.68L144.15 6.68L144.15 6.68Q145.01 7.52 145.01 9.21L145.01 9.21L145.01 13.55L142.35 13.55L142.35 9.65L142.35 9.65Q142.35 8.09 141.11 8.09L141.11 8.09L141.11 8.09Q140.42 8.09 140.01 8.54L140.01 8.54L140.01 8.54Q139.59 8.99 139.59 9.88L139.59 9.88L139.59 13.55L136.93 13.55L136.93 5.96L139.47 5.96L139.47 6.79L139.47 6.79Q139.92 6.33 140.53 6.08L140.53 6.08L140.53 6.08Q141.15 5.84 141.88 5.84L141.88 5.84ZM155.33 11.38L155.99 13.24L155.99 13.24Q155.65 13.45 155.17 13.57L155.17 13.57L155.17 13.57Q154.69 13.68 154.14 13.68L154.14 13.68L154.14 13.68Q152.66 13.68 151.86 12.95L151.86 12.95L151.86 12.95Q151.06 12.22 151.06 10.78L151.06 10.78L151.06 8.23L149.95 8.23L149.95 6.24L151.06 6.24L151.06 4.27L153.72 4.27L153.72 6.24L155.46 6.24L155.46 8.23L153.72 8.23L153.72 10.75L153.72 10.75Q153.72 11.16 153.94 11.39L153.94 11.39L153.94 11.39Q154.15 11.62 154.52 11.62L154.52 11.62L154.52 11.62Q154.98 11.62 155.33 11.38L155.33 11.38ZM160.82 13.68L160.82 13.68Q159.60 13.68 158.62 13.17L158.62 13.17L158.62 13.17Q157.64 12.67 157.09 11.77L157.09 11.77L157.09 11.77Q156.53 10.88 156.53 9.74L156.53 9.74L156.53 9.74Q156.53 8.62 157.09 7.73L157.09 7.73L157.09 7.73Q157.64 6.83 158.61 6.33L158.61 6.33L158.61 6.33Q159.59 5.84 160.82 5.84L160.82 5.84L160.82 5.84Q162.05 5.84 163.03 6.33L163.03 6.33L163.03 6.33Q164.01 6.83 164.56 7.72L164.56 7.72L164.56 7.72Q165.10 8.61 165.10 9.74L165.10 9.74L165.10 9.74Q165.10 10.88 164.56 11.77L164.56 11.77L164.56 11.77Q164.01 12.67 163.03 13.17L163.03 13.17L163.03 13.17Q162.05 13.68 160.82 13.68L160.82 13.68ZM160.82 11.56L160.82 11.56Q161.52 11.56 161.97 11.08L161.97 11.08L161.97 11.08Q162.41 10.60 162.41 9.74L162.41 9.74L162.41 9.74Q162.41 8.90 161.97 8.43L161.97 8.43L161.97 8.43Q161.52 7.95 160.82 7.95L160.82 7.95L160.82 7.95Q160.12 7.95 159.67 8.43L159.67 8.43L159.67 8.43Q159.22 8.90 159.22 9.74L159.22 9.74L159.22 9.74Q159.22 10.60 159.67 11.08L159.67 11.08L159.67 11.08Q160.12 11.56 160.82 11.56L160.82 11.56ZM171.11 5.84L171.11 5.84Q172.14 5.84 172.99 6.32L172.99 6.32L172.99 6.32Q173.84 6.80 174.34 7.69L174.34 7.69L174.34 7.69Q174.83 8.58 174.83 9.76L174.83 9.76L174.83 9.76Q174.83 10.93 174.34 11.82L174.34 11.82L174.34 11.82Q173.84 12.71 172.99 13.20L172.99 13.20L172.99 13.20Q172.14 13.68 171.11 13.68L171.11 13.68L171.11 13.68Q169.78 13.68 168.99 12.88L168.99 12.88L168.99 16.27L166.33 16.27L166.33 5.96L168.87 5.96L168.87 6.72L168.87 6.72Q169.61 5.84 171.11 5.84L171.11 5.84ZM170.55 11.56L170.55 11.56Q171.25 11.56 171.70 11.08L171.70 11.08L171.70 11.08Q172.14 10.60 172.14 9.76L172.14 9.76L172.14 9.76Q172.14 8.92 171.70 8.43L171.70 8.43L171.70 8.43Q171.25 7.95 170.55 7.95L170.55 7.95L170.55 7.95Q169.85 7.95 169.40 8.43L169.40 8.43L169.40 8.43Q168.95 8.92 168.95 9.76L168.95 9.76L168.95 9.76Q168.95 10.60 169.40 11.08L169.40 11.08L169.40 11.08Q169.85 11.56 170.55 11.56L170.55 11.56ZM176.26 9.98L175.74 3.75L178.91 3.75L178.37 9.98L176.26 9.98ZM177.32 13.68L177.32 13.68Q176.62 13.68 176.18 13.25L176.18 13.25L176.18 13.25Q175.73 12.82 175.73 12.21L175.73 12.21L175.73 12.21Q175.73 11.58 176.18 11.17L176.18 11.17L176.18 11.17Q176.62 10.77 177.32 10.77L177.32 10.77L177.32 10.77Q178.02 10.77 178.47 11.17L178.47 11.17L178.47 11.17Q178.91 11.58 178.91 12.21L178.91 12.21L178.91 12.21Q178.91 12.82 178.46 13.25L178.46 13.25L178.46 13.25Q178.01 13.68 177.32 13.68L177.32 13.68Z"></path></g></svg>