<svg data-v-423bf9ae="" xmlns="http://www.w3.org/2000/svg" viewBox="0 0 287.18534132082215 60" class="font"><!----><!----><!----><g data-v-423bf9ae="" id="5ce8548d-984b-4421-868b-c162a1056ada" fill="white" transform="matrix(4.576658825829835,0,0,4.576658825829835,-1.3272284568047326,-14.46224204402148)"><path d="M4.42 13.75L4.42 13.75Q3.23 13.75 2.11 13.45L2.11 13.45L2.11 13.45Q0.99 13.16 0.29 12.67L0.29 12.67L1.20 10.63L1.20 10.63Q1.86 11.06 2.73 11.33L2.73 11.33L2.73 11.33Q3.60 11.59 4.44 11.59L4.44 11.59L4.44 11.59Q6.03 11.59 6.03 10.79L6.03 10.79L6.03 10.79Q6.03 10.37 5.58 10.17L5.58 10.17L5.58 10.17Q5.12 9.97 4.12 9.74L4.12 9.74L4.12 9.74Q3.01 9.51 2.27 9.23L2.27 9.23L2.27 9.23Q1.53 8.96 0.99 8.36L0.99 8.36L0.99 8.36Q0.46 7.76 0.46 6.73L0.46 6.73L0.46 6.73Q0.46 5.84 0.95 5.12L0.95 5.12L0.95 5.12Q1.44 4.40 2.42 3.98L2.42 3.98L2.42 3.98Q3.39 3.56 4.80 3.56L4.80 3.56L4.80 3.56Q5.77 3.56 6.71 3.77L6.71 3.77L6.71 3.77Q7.64 3.99 8.36 4.41L8.36 4.41L7.50 6.47L7.50 6.47Q6.10 5.71 4.79 5.71L4.79 5.71L4.79 5.71Q3.96 5.71 3.58 5.96L3.58 5.96L3.58 5.96Q3.21 6.20 3.21 6.59L3.21 6.59L3.21 6.59Q3.21 6.99 3.65 7.18L3.65 7.18L3.65 7.18Q4.10 7.38 5.10 7.59L5.10 7.59L5.10 7.59Q6.22 7.83 6.95 8.10L6.95 8.10L6.95 8.10Q7.69 8.37 8.22 8.97L8.22 8.97L8.22 8.97Q8.76 9.56 8.76 10.58L8.76 10.58L8.76 10.58Q8.76 11.47 8.27 12.18L8.27 12.18L8.27 12.18Q7.78 12.89 6.80 13.32L6.80 13.32L6.80 13.32Q5.82 13.75 4.42 13.75L4.42 13.75ZM14.49 11.38L15.15 13.24L15.15 13.24Q14.81 13.45 14.33 13.57L14.33 13.57L14.33 13.57Q13.85 13.68 13.30 13.68L13.30 13.68L13.30 13.68Q11.82 13.68 11.02 12.95L11.02 12.95L11.02 12.95Q10.22 12.22 10.22 10.78L10.22 10.78L10.22 8.23L9.11 8.23L9.11 6.24L10.22 6.24L10.22 4.27L12.88 4.27L12.88 6.24L14.62 6.24L14.62 8.23L12.88 8.23L12.88 10.75L12.88 10.75Q12.88 11.16 13.10 11.39L13.10 11.39L13.10 11.39Q13.31 11.62 13.68 11.62L13.68 11.62L13.68 11.62Q14.14 11.62 14.49 11.38L14.49 11.38ZM19.98 13.68L19.98 13.68Q18.76 13.68 17.78 13.17L17.78 13.17L17.78 13.17Q16.80 12.67 16.25 11.77L16.25 11.77L16.25 11.77Q15.69 10.88 15.69 9.74L15.69 9.74L15.69 9.74Q15.69 8.62 16.25 7.73L16.25 7.73L16.25 7.73Q16.80 6.83 17.77 6.33L17.77 6.33L17.77 6.33Q18.75 5.84 19.98 5.84L19.98 5.84L19.98 5.84Q21.21 5.84 22.19 6.33L22.19 6.33L22.19 6.33Q23.17 6.83 23.72 7.72L23.72 7.72L23.72 7.72Q24.26 8.61 24.26 9.74L24.26 9.74L24.26 9.74Q24.26 10.88 23.72 11.77L23.72 11.77L23.72 11.77Q23.17 12.67 22.19 13.17L22.19 13.17L22.19 13.17Q21.21 13.68 19.98 13.68L19.98 13.68ZM19.98 11.56L19.98 11.56Q20.68 11.56 21.13 11.08L21.13 11.08L21.13 11.08Q21.57 10.60 21.57 9.74L21.57 9.74L21.57 9.74Q21.57 8.90 21.13 8.43L21.13 8.43L21.13 8.43Q20.68 7.95 19.98 7.95L19.98 7.95L19.98 7.95Q19.28 7.95 18.83 8.43L18.83 8.43L18.83 8.43Q18.38 8.90 18.38 9.74L18.38 9.74L18.38 9.74Q18.38 10.60 18.83 11.08L18.83 11.08L18.83 11.08Q19.28 11.56 19.98 11.56L19.98 11.56ZM29.37 13.68L29.37 13.68Q28.11 13.68 27.12 13.17L27.12 13.17L27.12 13.17Q26.12 12.67 25.57 11.77L25.57 11.77L25.57 11.77Q25.02 10.88 25.02 9.74L25.02 9.74L25.02 9.74Q25.02 8.61 25.57 7.72L25.57 7.72L25.57 7.72Q26.12 6.83 27.12 6.33L27.12 6.33L27.12 6.33Q28.11 5.84 29.37 5.84L29.37 5.84L29.37 5.84Q30.66 5.84 31.60 6.39L31.60 6.39L31.60 6.39Q32.54 6.94 32.93 7.92L32.93 7.92L30.87 8.97L30.87 8.97Q30.35 7.95 29.36 7.95L29.36 7.95L29.36 7.95Q28.64 7.95 28.18 8.43L28.18 8.43L28.18 8.43Q27.71 8.90 27.71 9.74L27.71 9.74L27.71 9.74Q27.71 10.60 28.18 11.08L28.18 11.08L28.18 11.08Q28.64 11.56 29.36 11.56L29.36 11.56L29.36 11.56Q30.35 11.56 30.87 10.54L30.87 10.54L32.93 11.59L32.93 11.59Q32.54 12.57 31.60 13.13L31.60 13.13L31.60 13.13Q30.66 13.68 29.37 13.68L29.37 13.68ZM39.51 13.55L37.38 10.89L36.60 11.69L36.60 13.55L33.94 13.55L33.94 3.16L36.60 3.16L36.60 8.61L39.31 5.96L42.46 5.96L39.31 9.21L42.73 13.55L39.51 13.55ZM48.19 13.75L48.19 13.75Q46.00 13.75 44.79 12.56L44.79 12.56L44.79 12.56Q43.58 11.37 43.58 9.18L43.58 9.18L43.58 3.75L46.35 3.75L46.35 9.10L46.35 9.10Q46.35 11.45 48.22 11.45L48.22 11.45L48.22 11.45Q50.06 11.45 50.06 9.10L50.06 9.10L50.06 3.75L52.79 3.75L52.79 9.18L52.79 9.18Q52.79 11.37 51.58 12.56L51.58 12.56L51.58 12.56Q50.37 13.75 48.19 13.75L48.19 13.75ZM59.32 5.84L59.32 5.84Q60.35 5.84 61.20 6.32L61.20 6.32L61.20 6.32Q62.05 6.80 62.55 7.69L62.55 7.69L62.55 7.69Q63.04 8.58 63.04 9.76L63.04 9.76L63.04 9.76Q63.04 10.93 62.55 11.82L62.55 11.82L62.55 11.82Q62.05 12.71 61.20 13.20L61.20 13.20L61.20 13.20Q60.35 13.68 59.32 13.68L59.32 13.68L59.32 13.68Q57.99 13.68 57.20 12.88L57.20 12.88L57.20 16.27L54.54 16.27L54.54 5.96L57.08 5.96L57.08 6.72L57.08 6.72Q57.82 5.84 59.32 5.84L59.32 5.84ZM58.76 11.56L58.76 11.56Q59.46 11.56 59.91 11.08L59.91 11.08L59.91 11.08Q60.35 10.60 60.35 9.76L60.35 9.76L60.35 9.76Q60.35 8.92 59.91 8.43L59.91 8.43L59.91 8.43Q59.46 7.95 58.76 7.95L58.76 7.95L58.76 7.95Q58.06 7.95 57.61 8.43L57.61 8.43L57.61 8.43Q57.16 8.92 57.16 9.76L57.16 9.76L57.16 9.76Q57.16 10.60 57.61 11.08L57.61 11.08L57.61 11.08Q58.06 11.56 58.76 11.56L58.76 11.56Z"></path></g><!----><!----></svg>